<svg width="119" height="91" viewBox="0 0 119 91" fill="none" xmlns="http://www.w3.org/2000/svg">
<g clip-path="url(#clip0_104_138)">
<path d="M114.72 24.9178C116.571 26.1947 118.5 28.1964 118.5 31.0084V40.161C118.5 42.973 116.571 44.9747 114.72 46.2517C113.669 46.9764 112.423 47.6278 111.032 48.2105V50.839C111.032 51.4687 110.935 52.0578 110.764 52.6072C111.776 53.7509 112.525 55.1885 112.525 56.9406V66.0932C112.525 68.9052 110.596 70.9069 108.745 72.1839C106.79 73.5328 104.157 74.6274 101.171 75.4985C95.1601 77.2525 87.0291 78.2966 78.1709 78.2966C69.3126 78.2966 61.1816 77.2525 55.1703 75.4985C52.185 74.6274 49.5519 73.5328 47.5966 72.1839C45.7455 70.9069 43.8164 68.9052 43.8164 66.0932V56.9406C43.8164 56.3109 43.9132 55.7218 44.0841 55.1724C43.0717 54.0287 42.3228 52.5911 42.3228 50.839V41.6864C42.3228 38.8744 44.2518 36.8727 46.1029 35.5957C47.1535 34.871 48.3997 34.2196 49.7911 33.6369V31.0084C49.7911 28.1964 51.7202 26.1947 53.5712 24.9178C55.5266 23.5688 58.1596 22.4742 61.145 21.6032C67.1563 19.8491 75.2873 18.8051 84.1455 18.8051C93.0038 18.8051 101.135 19.8491 107.146 21.6032C110.131 22.4742 112.765 23.5688 114.72 24.9178Z" fill="#021024" fill-opacity="0.1"/>
<path d="M106.551 53.8898C106.551 48.835 92.5071 44.7373 75.1836 44.7373C57.86 44.7373 43.8165 48.835 43.8165 53.8898V63.0424C43.8165 68.0972 57.86 72.1949 75.1836 72.1949C92.5071 72.1949 106.551 68.0972 106.551 63.0424V53.8898Z" fill="#D18A00"/>
<path fill-rule="evenodd" clip-rule="evenodd" d="M105.758 47.7991C107.609 49.0761 109.538 51.0778 109.538 53.8898V63.0424C109.538 65.8544 107.609 67.8561 105.758 69.133C103.803 70.482 101.169 71.5766 98.1841 72.4477C92.1728 74.2017 84.0418 75.2458 75.1835 75.2458C66.3253 75.2458 58.1943 74.2017 52.183 72.4477C49.1976 71.5766 46.5646 70.482 44.6092 69.133C42.7582 67.8561 40.8291 65.8544 40.8291 63.0424V53.8898C40.8291 51.0778 42.7582 49.0761 44.6092 47.7991C46.5646 46.4502 49.1976 45.3556 52.183 44.4845C58.1943 42.7305 66.3253 41.6864 75.1835 41.6864C84.0418 41.6864 92.1728 42.7305 98.1841 44.4845C101.169 45.3556 103.803 46.4502 105.758 47.7991ZM75.1835 44.7373C92.5071 44.7373 106.551 48.835 106.551 53.8898V63.0424C106.551 68.0972 92.5071 72.1949 75.1835 72.1949C57.86 72.1949 43.8164 68.0972 43.8164 63.0424V53.8898C43.8164 48.835 57.86 44.7373 75.1835 44.7373Z" fill="#B96F00"/>
<path d="M106.551 53.8898C106.551 58.9446 92.5071 63.0424 75.1836 63.0424C57.86 63.0424 43.8165 58.9446 43.8165 53.8898C43.8165 48.835 57.86 44.7373 75.1836 44.7373C92.5071 44.7373 106.551 48.835 106.551 53.8898Z" fill="#FFCF23"/>
<path fill-rule="evenodd" clip-rule="evenodd" d="M98.1841 63.2951C92.1728 65.0491 84.0418 66.0932 75.1835 66.0932C66.3253 66.0932 58.1943 65.0491 52.183 63.2951C49.1976 62.424 46.5646 61.3294 44.6092 59.9805C42.7582 58.7035 40.8291 56.7018 40.8291 53.8898C40.8291 51.0778 42.7582 49.0761 44.6092 47.7991C46.5646 46.4502 49.1976 45.3556 52.183 44.4845C58.1943 42.7305 66.3253 41.6864 75.1835 41.6864C84.0418 41.6864 92.1728 42.7305 98.1841 44.4845C101.169 45.3556 103.803 46.4502 105.758 47.7991C107.609 49.0761 109.538 51.0778 109.538 53.8898C109.538 56.7018 107.609 58.7035 105.758 59.9805C103.803 61.3294 101.169 62.424 98.1841 63.2951ZM75.1835 63.0424C92.5071 63.0424 106.551 58.9446 106.551 53.8898C106.551 48.835 92.5071 44.7373 75.1835 44.7373C57.86 44.7373 43.8164 48.835 43.8164 53.8898C43.8164 58.9446 57.86 63.0424 75.1835 63.0424Z" fill="#B96F00"/>
<path fill-rule="evenodd" clip-rule="evenodd" d="M51.2848 59.9915C52.1097 59.9915 52.7785 60.6745 52.7785 61.5169V69.9068C52.7785 70.7492 52.1097 71.4322 51.2848 71.4322C50.4599 71.4322 49.7911 70.7492 49.7911 69.9068V61.5169C49.7911 60.6745 50.4599 59.9915 51.2848 59.9915Z" fill="#B96F00"/>
<path fill-rule="evenodd" clip-rule="evenodd" d="M99.0823 59.9915C99.9072 59.9915 100.576 60.6745 100.576 61.5169V69.9068C100.576 70.7492 99.9072 71.4322 99.0823 71.4322C98.2574 71.4322 97.5886 70.7492 97.5886 69.9068V61.5169C97.5886 60.6745 98.2574 59.9915 99.0823 59.9915Z" fill="#B96F00"/>
<path fill-rule="evenodd" clip-rule="evenodd" d="M63.2342 63.0424C64.0591 63.0424 64.7278 63.7253 64.7278 64.5678V71.4322C64.7278 72.2747 64.0591 72.9576 63.2342 72.9576C62.4092 72.9576 61.7405 72.2747 61.7405 71.4322V64.5678C61.7405 63.7253 62.4092 63.0424 63.2342 63.0424Z" fill="#B96F00"/>
<path fill-rule="evenodd" clip-rule="evenodd" d="M88.6265 63.0424C89.4515 63.0424 90.1202 63.7253 90.1202 64.5678V71.4322C90.1202 72.2747 89.4515 72.9576 88.6265 72.9576C87.8016 72.9576 87.1329 72.2747 87.1329 71.4322V64.5678C87.1329 63.7253 87.8016 63.0424 88.6265 63.0424Z" fill="#B96F00"/>
<path fill-rule="evenodd" clip-rule="evenodd" d="M76.6772 63.0424C77.5021 63.0424 78.1709 63.7253 78.1709 64.5678V71.4322C78.1709 72.2747 77.5021 72.9576 76.6772 72.9576C75.8523 72.9576 75.1835 72.2747 75.1835 71.4322V64.5678C75.1835 63.7253 75.8523 63.0424 76.6772 63.0424Z" fill="#B96F00"/>
<path d="M105.057 38.6356C105.057 33.5808 91.0135 29.483 73.6899 29.483C56.3663 29.483 42.3228 33.5808 42.3228 38.6356V47.7881C42.3228 52.8429 56.3663 56.9407 73.6899 56.9407C91.0135 56.9407 105.057 52.8429 105.057 47.7881V38.6356Z" fill="#D18A00"/>
<path fill-rule="evenodd" clip-rule="evenodd" d="M104.264 32.5449C106.115 33.8219 108.044 35.8236 108.044 38.6356V47.7881C108.044 50.6001 106.115 52.6018 104.264 53.8788C102.309 55.2277 99.6758 56.3223 96.6904 57.1934C90.6791 58.9474 82.5482 59.9915 73.6899 59.9915C64.8316 59.9915 56.7006 58.9474 50.6893 57.1934C47.704 56.3223 45.0709 55.2277 43.1156 53.8788C41.2645 52.6018 39.3354 50.6001 39.3354 47.7881V38.6356C39.3354 35.8236 41.2645 33.8219 43.1156 32.5449C45.0709 31.196 47.704 30.1014 50.6893 29.2303C56.7006 27.4763 64.8316 26.4322 73.6899 26.4322C82.5482 26.4322 90.6791 27.4763 96.6904 29.2303C99.6758 30.1014 102.309 31.196 104.264 32.5449ZM73.6899 29.483C91.0134 29.483 105.057 33.5808 105.057 38.6356V47.7881C105.057 52.8429 91.0134 56.9407 73.6899 56.9407C56.3663 56.9407 42.3228 52.8429 42.3228 47.7881V38.6356C42.3228 33.5808 56.3663 29.483 73.6899 29.483Z" fill="#B96F00"/>
<path d="M105.057 38.6356C105.057 43.6904 91.0135 47.7881 73.6899 47.7881C56.3663 47.7881 42.3228 43.6904 42.3228 38.6356C42.3228 33.5808 56.3663 29.483 73.6899 29.483C91.0135 29.483 105.057 33.5808 105.057 38.6356Z" fill="#FFCF23"/>
<path fill-rule="evenodd" clip-rule="evenodd" d="M96.6904 48.0409C90.6791 49.7949 82.5482 50.839 73.6899 50.839C64.8316 50.839 56.7006 49.7949 50.6893 48.0409C47.704 47.1698 45.0709 46.0752 43.1156 44.7263C41.2645 43.4493 39.3354 41.4476 39.3354 38.6356C39.3354 35.8236 41.2645 33.8219 43.1156 32.5449C45.0709 31.196 47.704 30.1014 50.6893 29.2303C56.7006 27.4763 64.8316 26.4322 73.6899 26.4322C82.5482 26.4322 90.6791 27.4763 96.6904 29.2303C99.6758 30.1014 102.309 31.196 104.264 32.5449C106.115 33.8219 108.044 35.8236 108.044 38.6356C108.044 41.4476 106.115 43.4493 104.264 44.7263C102.309 46.0752 99.6758 47.1698 96.6904 48.0409ZM73.6899 47.7881C91.0134 47.7881 105.057 43.6904 105.057 38.6356C105.057 33.5808 91.0134 29.483 73.6899 29.483C56.3663 29.483 42.3228 33.5808 42.3228 38.6356C42.3228 43.6904 56.3663 47.7881 73.6899 47.7881Z" fill="#B96F00"/>
<path fill-rule="evenodd" clip-rule="evenodd" d="M49.7912 44.7373C50.6161 44.7373 51.2848 45.4202 51.2848 46.2627V54.6525C51.2848 55.495 50.6161 56.178 49.7912 56.178C48.9662 56.178 48.2975 55.495 48.2975 54.6525V46.2627C48.2975 45.4202 48.9662 44.7373 49.7912 44.7373Z" fill="#B96F00"/>
<path fill-rule="evenodd" clip-rule="evenodd" d="M97.5886 44.7373C98.4136 44.7373 99.0823 45.4202 99.0823 46.2627V54.6525C99.0823 55.495 98.4136 56.178 97.5886 56.178C96.7637 56.178 96.095 55.495 96.095 54.6525V46.2627C96.095 45.4202 96.7637 44.7373 97.5886 44.7373Z" fill="#B96F00"/>
<path fill-rule="evenodd" clip-rule="evenodd" d="M61.7405 47.7881C62.5654 47.7881 63.2342 48.4711 63.2342 49.3135V56.1779C63.2342 57.0204 62.5654 57.7034 61.7405 57.7034C60.9156 57.7034 60.2468 57.0204 60.2468 56.1779V49.3135C60.2468 48.4711 60.9156 47.7881 61.7405 47.7881Z" fill="#B96F00"/>
<path fill-rule="evenodd" clip-rule="evenodd" d="M87.1329 47.7881C87.9579 47.7881 88.6266 48.4711 88.6266 49.3135V56.1779C88.6266 57.0204 87.9579 57.7034 87.1329 57.7034C86.308 57.7034 85.6393 57.0204 85.6393 56.1779V49.3135C85.6393 48.4711 86.308 47.7881 87.1329 47.7881Z" fill="#B96F00"/>
<path fill-rule="evenodd" clip-rule="evenodd" d="M75.1836 47.7881C76.0085 47.7881 76.6772 48.4711 76.6772 49.3135V56.1779C76.6772 57.0204 76.0085 57.7034 75.1836 57.7034C74.3586 57.7034 73.6899 57.0204 73.6899 56.1779V49.3135C73.6899 48.4711 74.3586 47.7881 75.1836 47.7881Z" fill="#B96F00"/>
<path d="M112.525 27.9576C112.525 22.9028 98.4818 18.8051 81.1582 18.8051C63.8347 18.8051 49.7911 22.9028 49.7911 27.9576V37.1101C49.7911 42.1649 63.8347 46.2627 81.1582 46.2627C98.4818 46.2627 112.525 42.1649 112.525 37.1101V27.9576Z" fill="#D18A00"/>
<path fill-rule="evenodd" clip-rule="evenodd" d="M111.733 21.8669C113.584 23.1439 115.513 25.1456 115.513 27.9576V37.1101C115.513 39.9222 113.584 41.9238 111.733 43.2008C109.777 44.5497 107.144 45.6443 104.159 46.5154C98.1474 48.2695 90.0165 49.3135 81.1582 49.3135C72.2999 49.3135 64.169 48.2695 58.1576 46.5154C55.1723 45.6443 52.5392 44.5497 50.5839 43.2008C48.7328 41.9238 46.8038 39.9222 46.8038 37.1101V27.9576C46.8038 25.1456 48.7328 23.1439 50.5839 21.8669C52.5392 20.518 55.1723 19.4234 58.1576 18.5523C64.169 16.7983 72.2999 15.7542 81.1582 15.7542C90.0165 15.7542 98.1474 16.7983 104.159 18.5523C107.144 19.4234 109.777 20.518 111.733 21.8669ZM81.1582 18.8051C98.4818 18.8051 112.525 22.9028 112.525 27.9576V37.1101C112.525 42.165 98.4818 46.2627 81.1582 46.2627C63.8346 46.2627 49.7911 42.165 49.7911 37.1101V27.9576C49.7911 22.9028 63.8346 18.8051 81.1582 18.8051Z" fill="#B96F00"/>
<path d="M112.525 27.9576C112.525 33.0124 98.4818 37.1101 81.1582 37.1101C63.8347 37.1101 49.7911 33.0124 49.7911 27.9576C49.7911 22.9028 63.8347 18.8051 81.1582 18.8051C98.4818 18.8051 112.525 22.9028 112.525 27.9576Z" fill="#FFCF23"/>
<path fill-rule="evenodd" clip-rule="evenodd" d="M104.159 37.3629C98.1474 39.1169 90.0165 40.161 81.1582 40.161C72.2999 40.161 64.169 39.1169 58.1576 37.3629C55.1723 36.4918 52.5392 35.3972 50.5839 34.0483C48.7328 32.7713 46.8038 30.7696 46.8038 27.9576C46.8038 25.1456 48.7328 23.1439 50.5839 21.8669C52.5392 20.518 55.1723 19.4234 58.1576 18.5523C64.169 16.7983 72.2999 15.7542 81.1582 15.7542C90.0165 15.7542 98.1474 16.7983 104.159 18.5523C107.144 19.4234 109.777 20.518 111.733 21.8669C113.584 23.1439 115.513 25.1456 115.513 27.9576C115.513 30.7696 113.584 32.7713 111.733 34.0483C109.777 35.3972 107.144 36.4918 104.159 37.3629ZM81.1582 37.1101C98.4818 37.1101 112.525 33.0124 112.525 27.9576C112.525 22.9028 98.4818 18.8051 81.1582 18.8051C63.8346 18.8051 49.7911 22.9028 49.7911 27.9576C49.7911 33.0124 63.8346 37.1101 81.1582 37.1101Z" fill="#B96F00"/>
<path fill-rule="evenodd" clip-rule="evenodd" d="M57.2595 34.0593C58.0844 34.0593 58.7532 34.7423 58.7532 35.5847V43.9745C58.7532 44.817 58.0844 45.5 57.2595 45.5C56.4345 45.5 55.7658 44.817 55.7658 43.9745V35.5847C55.7658 34.7423 56.4345 34.0593 57.2595 34.0593Z" fill="#B96F00"/>
<path fill-rule="evenodd" clip-rule="evenodd" d="M105.057 34.0593C105.882 34.0593 106.551 34.7423 106.551 35.5847V43.9745C106.551 44.817 105.882 45.5 105.057 45.5C104.232 45.5 103.563 44.817 103.563 43.9745V35.5847C103.563 34.7423 104.232 34.0593 105.057 34.0593Z" fill="#B96F00"/>
<path fill-rule="evenodd" clip-rule="evenodd" d="M69.2088 37.1101C70.0338 37.1101 70.7025 37.7931 70.7025 38.6356V45.5C70.7025 46.3424 70.0338 47.0254 69.2088 47.0254C68.3839 47.0254 67.7151 46.3424 67.7151 45.5V38.6356C67.7151 37.7931 68.3839 37.1101 69.2088 37.1101Z" fill="#B96F00"/>
<path fill-rule="evenodd" clip-rule="evenodd" d="M94.6012 37.1101C95.4261 37.1101 96.0949 37.7931 96.0949 38.6356V45.5C96.0949 46.3424 95.4261 47.0254 94.6012 47.0254C93.7763 47.0254 93.1075 46.3424 93.1075 45.5V38.6356C93.1075 37.7931 93.7763 37.1101 94.6012 37.1101Z" fill="#B96F00"/>
<path fill-rule="evenodd" clip-rule="evenodd" d="M82.6519 37.1101C83.4768 37.1101 84.1455 37.7931 84.1455 38.6356V45.5C84.1455 46.3424 83.4768 47.0254 82.6519 47.0254C81.8269 47.0254 81.1582 46.3424 81.1582 45.5V38.6356C81.1582 37.7931 81.8269 37.1101 82.6519 37.1101Z" fill="#B96F00"/>
<path d="M76.6772 15.7542C76.6772 12.9422 74.7482 10.9405 72.8971 9.66355C70.9418 8.31464 68.3087 7.22003 65.3234 6.34894C59.3121 4.59491 51.1811 3.55084 42.3228 3.55084C33.4645 3.55084 25.3336 4.59491 19.3222 6.34894C16.3369 7.22003 13.7038 8.31464 11.7485 9.66355C9.89744 10.9405 7.96838 12.9422 7.96838 15.7542V24.9068C7.96838 27.7188 9.89744 29.7205 11.7485 30.9975C13.0511 31.8961 14.6545 32.6818 16.4624 33.3638C15.9065 33.5059 15.3658 33.6535 14.8412 33.8066C11.8559 34.6777 9.22282 35.7723 7.26749 37.1212C5.41643 38.3982 3.48737 40.3999 3.48737 43.2119V52.3644C3.48737 55.1764 5.41643 57.1781 7.26749 58.4551C9.02428 59.667 11.3282 60.6737 13.9431 61.4974V61.7755C13.1429 62.1734 12.4073 62.5989 11.7485 63.0534C9.89744 64.3304 7.96838 66.3321 7.96838 69.1441V78.2966C7.96838 81.1086 9.89744 83.1103 11.7485 84.3873C13.7038 85.7362 16.3369 86.8308 19.3222 87.7019C25.3336 89.4559 33.4645 90.5 42.3228 90.5C51.1811 90.5 59.3121 89.4559 65.3234 87.7019C68.3087 86.8308 70.9418 85.7362 72.8971 84.3873C74.7482 83.1103 76.6772 81.1086 76.6772 78.2966V71.9364C77.4774 71.5385 78.2131 71.1129 78.8718 70.6585C80.7229 69.3815 82.6519 67.3798 82.6519 64.5678V55.4152C82.6519 52.6032 80.7229 50.6015 78.8718 49.3246C77.9576 48.6939 76.8953 48.1188 75.7181 47.5962C78.1125 46.8056 80.2231 45.8549 81.8591 44.7263C83.7102 43.4493 85.6393 41.4476 85.6393 38.6356V29.483C85.6393 26.671 83.7102 24.6693 81.8591 23.3924C80.4452 22.4169 78.6769 21.5745 76.6772 20.8534V15.7542Z" fill="#021024" fill-opacity="0.1"/>
<path d="M70.7026 66.0932C70.7026 61.0384 56.659 56.9407 39.3355 56.9407C22.0119 56.9407 7.96838 61.0384 7.96838 66.0932V75.2458C7.96838 80.3006 22.0119 84.3983 39.3355 84.3983C56.659 84.3983 70.7026 80.3006 70.7026 75.2458V66.0932Z" fill="#D18A00"/>
<path fill-rule="evenodd" clip-rule="evenodd" d="M69.9098 60.0025C71.7608 61.2795 73.6899 63.2812 73.6899 66.0932V75.2458C73.6899 78.0578 71.7608 80.0595 69.9098 81.3364C67.9544 82.6854 65.3214 83.78 62.336 84.651C56.3247 86.4051 48.1937 87.4491 39.3354 87.4491C30.4772 87.4491 22.3462 86.4051 16.3349 84.651C13.3495 83.78 10.7165 82.6854 8.76115 81.3364C6.91008 80.0595 4.98102 78.0578 4.98102 75.2458V66.0932C4.98102 63.2812 6.91008 61.2795 8.76115 60.0025C10.7165 58.6536 13.3495 57.559 16.3349 56.6879C22.3462 54.9339 30.4772 53.8898 39.3354 53.8898C48.1937 53.8898 56.3247 54.9339 62.336 56.6879C65.3214 57.559 67.9544 58.6536 69.9098 60.0025ZM39.3354 56.9407C56.659 56.9407 70.7025 61.0384 70.7025 66.0932V75.2458C70.7025 80.3006 56.659 84.3983 39.3354 84.3983C22.0119 84.3983 7.96836 80.3006 7.96836 75.2458V66.0932C7.96836 61.0384 22.0119 56.9407 39.3354 56.9407Z" fill="#B96F00"/>
<path d="M70.7026 66.0932C70.7026 71.148 56.659 75.2458 39.3355 75.2458C22.0119 75.2458 7.96838 71.148 7.96838 66.0932C7.96838 61.0384 22.0119 56.9407 39.3355 56.9407C56.659 56.9407 70.7026 61.0384 70.7026 66.0932Z" fill="#FFCF23"/>
<path fill-rule="evenodd" clip-rule="evenodd" d="M62.336 75.4985C56.3247 77.2525 48.1937 78.2966 39.3354 78.2966C30.4772 78.2966 22.3462 77.2525 16.3349 75.4985C13.3495 74.6274 10.7165 73.5328 8.76115 72.1839C6.91008 70.9069 4.98102 68.9052 4.98102 66.0932C4.98102 63.2812 6.91008 61.2795 8.76115 60.0025C10.7165 58.6536 13.3495 57.559 16.3349 56.6879C22.3462 54.9339 30.4772 53.8898 39.3354 53.8898C48.1937 53.8898 56.3247 54.9339 62.336 56.6879C65.3214 57.559 67.9544 58.6536 69.9098 60.0025C71.7608 61.2795 73.6899 63.2812 73.6899 66.0932C73.6899 68.9052 71.7608 70.9069 69.9098 72.1839C67.9544 73.5328 65.3214 74.6274 62.336 75.4985ZM39.3354 75.2458C56.659 75.2458 70.7025 71.148 70.7025 66.0932C70.7025 61.0384 56.659 56.9407 39.3354 56.9407C22.0119 56.9407 7.96836 61.0384 7.96836 66.0932C7.96836 71.148 22.0119 75.2458 39.3354 75.2458Z" fill="#B96F00"/>
<path fill-rule="evenodd" clip-rule="evenodd" d="M15.4367 72.1949C16.2617 72.1949 16.9304 72.8779 16.9304 73.7203V82.1102C16.9304 82.9526 16.2617 83.6356 15.4367 83.6356C14.6118 83.6356 13.9431 82.9526 13.9431 82.1102V73.7203C13.9431 72.8779 14.6118 72.1949 15.4367 72.1949Z" fill="#B96F00"/>
<path fill-rule="evenodd" clip-rule="evenodd" d="M63.2342 72.1949C64.0591 72.1949 64.7278 72.8779 64.7278 73.7203V82.1102C64.7278 82.9526 64.0591 83.6356 63.2342 83.6356C62.4092 83.6356 61.7405 82.9526 61.7405 82.1102V73.7203C61.7405 72.8779 62.4092 72.1949 63.2342 72.1949Z" fill="#B96F00"/>
<path fill-rule="evenodd" clip-rule="evenodd" d="M27.3861 75.2458C28.211 75.2458 28.8797 75.9287 28.8797 76.7712V83.6356C28.8797 84.4781 28.211 85.161 27.3861 85.161C26.5611 85.161 25.8924 84.4781 25.8924 83.6356V76.7712C25.8924 75.9287 26.5611 75.2458 27.3861 75.2458Z" fill="#B96F00"/>
<path fill-rule="evenodd" clip-rule="evenodd" d="M52.7785 75.2458C53.6034 75.2458 54.2721 75.9287 54.2721 76.7712V83.6356C54.2721 84.4781 53.6034 85.161 52.7785 85.161C51.9535 85.161 51.2848 84.4781 51.2848 83.6356V76.7712C51.2848 75.9287 51.9535 75.2458 52.7785 75.2458Z" fill="#B96F00"/>
<path fill-rule="evenodd" clip-rule="evenodd" d="M40.8291 75.2458C41.6541 75.2458 42.3228 75.9287 42.3228 76.7712V83.6356C42.3228 84.4781 41.6541 85.161 40.8291 85.161C40.0042 85.161 39.3354 84.4781 39.3354 83.6356V76.7712C39.3354 75.9287 40.0042 75.2458 40.8291 75.2458Z" fill="#B96F00"/>
<path d="M76.6772 52.3644C76.6772 47.3096 62.6337 43.2119 45.3101 43.2119C27.9866 43.2119 13.9431 47.3096 13.9431 52.3644V61.5169C13.9431 66.5717 27.9866 70.6695 45.3101 70.6695C62.6337 70.6695 76.6772 66.5717 76.6772 61.5169V52.3644Z" fill="#D18A00"/>
<path fill-rule="evenodd" clip-rule="evenodd" d="M75.8844 46.2737C77.7355 47.5507 79.6646 49.5524 79.6646 52.3644V61.5169C79.6646 64.3289 77.7355 66.3306 75.8844 67.6076C73.9291 68.9565 71.296 70.0511 68.3107 70.9222C62.2994 72.6763 54.1684 73.7203 45.3101 73.7203C36.4518 73.7203 28.3209 72.6763 22.3096 70.9222C19.3242 70.0511 16.6911 68.9565 14.7358 67.6076C12.8848 66.3306 10.9557 64.3289 10.9557 61.5169V52.3644C10.9557 49.5524 12.8848 47.5507 14.7358 46.2737C16.6911 44.9248 19.3242 43.8302 22.3096 42.9591C28.3209 41.2051 36.4518 40.161 45.3101 40.161C54.1684 40.161 62.2994 41.2051 68.3107 42.9591C71.296 43.8302 73.9291 44.9248 75.8844 46.2737ZM45.3101 43.2119C62.6337 43.2119 76.6772 47.3096 76.6772 52.3644V61.5169C76.6772 66.5717 62.6337 70.6695 45.3101 70.6695C27.9866 70.6695 13.943 66.5717 13.943 61.5169V52.3644C13.943 47.3096 27.9866 43.2119 45.3101 43.2119Z" fill="#B96F00"/>
<path d="M76.6772 52.3644C76.6772 57.4192 62.6337 61.5169 45.3101 61.5169C27.9866 61.5169 13.9431 57.4192 13.9431 52.3644C13.9431 47.3096 27.9866 43.2119 45.3101 43.2119C62.6337 43.2119 76.6772 47.3096 76.6772 52.3644Z" fill="#FFCF23"/>
<path fill-rule="evenodd" clip-rule="evenodd" d="M68.3107 61.7697C62.2994 63.5237 54.1684 64.5678 45.3101 64.5678C36.4518 64.5678 28.3209 63.5237 22.3096 61.7697C19.3242 60.8986 16.6911 59.804 14.7358 58.4551C12.8848 57.1781 10.9557 55.1764 10.9557 52.3644C10.9557 49.5524 12.8848 47.5507 14.7358 46.2737C16.6911 44.9248 19.3242 43.8302 22.3096 42.9591C28.3209 41.2051 36.4518 40.161 45.3101 40.161C54.1684 40.161 62.2994 41.2051 68.3107 42.9591C71.296 43.8302 73.9291 44.9248 75.8844 46.2737C77.7355 47.5507 79.6646 49.5524 79.6646 52.3644C79.6646 55.1764 77.7355 57.1781 75.8844 58.4551C73.9291 59.804 71.296 60.8986 68.3107 61.7697ZM45.3101 61.5169C62.6337 61.5169 76.6772 57.4192 76.6772 52.3644C76.6772 47.3096 62.6337 43.2119 45.3101 43.2119C27.9866 43.2119 13.943 47.3096 13.943 52.3644C13.943 57.4192 27.9866 61.5169 45.3101 61.5169Z" fill="#B96F00"/>
<path fill-rule="evenodd" clip-rule="evenodd" d="M21.4114 58.4661C22.2363 58.4661 22.9051 59.1491 22.9051 59.9915V68.3813C22.9051 69.2238 22.2363 69.9068 21.4114 69.9068C20.5865 69.9068 19.9177 69.2238 19.9177 68.3813V59.9915C19.9177 59.1491 20.5865 58.4661 21.4114 58.4661Z" fill="#B96F00"/>
<path fill-rule="evenodd" clip-rule="evenodd" d="M69.2089 58.4661C70.0338 58.4661 70.7026 59.1491 70.7026 59.9915V68.3813C70.7026 69.2238 70.0338 69.9068 69.2089 69.9068C68.3839 69.9068 67.7152 69.2238 67.7152 68.3813V59.9915C67.7152 59.1491 68.3839 58.4661 69.2089 58.4661Z" fill="#B96F00"/>
<path fill-rule="evenodd" clip-rule="evenodd" d="M33.3607 61.5169C34.1857 61.5169 34.8544 62.1999 34.8544 63.0424V69.9068C34.8544 70.7492 34.1857 71.4322 33.3607 71.4322C32.5358 71.4322 31.8671 70.7492 31.8671 69.9068V63.0424C31.8671 62.1999 32.5358 61.5169 33.3607 61.5169Z" fill="#B96F00"/>
<path fill-rule="evenodd" clip-rule="evenodd" d="M58.7531 61.5169C59.5781 61.5169 60.2468 62.1999 60.2468 63.0424V69.9068C60.2468 70.7492 59.5781 71.4322 58.7531 71.4322C57.9282 71.4322 57.2595 70.7492 57.2595 69.9068V63.0424C57.2595 62.1999 57.9282 61.5169 58.7531 61.5169Z" fill="#B96F00"/>
<path fill-rule="evenodd" clip-rule="evenodd" d="M46.8038 61.5169C47.6287 61.5169 48.2975 62.1999 48.2975 63.0424V69.9068C48.2975 70.7492 47.6287 71.4322 46.8038 71.4322C45.9789 71.4322 45.3101 70.7492 45.3101 69.9068V63.0424C45.3101 62.1999 45.9789 61.5169 46.8038 61.5169Z" fill="#B96F00"/>
<path d="M66.2215 40.161C66.2215 35.1062 52.178 31.0085 34.8545 31.0085C17.5309 31.0085 3.48737 35.1062 3.48737 40.161V49.3136C3.48737 54.3684 17.5309 58.4661 34.8545 58.4661C52.178 58.4661 66.2215 54.3684 66.2215 49.3136V40.161Z" fill="#D18A00"/>
<path fill-rule="evenodd" clip-rule="evenodd" d="M65.4287 34.0703C67.2798 35.3473 69.2089 37.349 69.2089 40.161V49.3136C69.2089 52.1256 67.2798 54.1273 65.4287 55.4043C63.4734 56.7532 60.8403 57.8478 57.855 58.7189C51.8437 60.4729 43.7127 61.517 34.8544 61.517C25.9962 61.517 17.8652 60.4729 11.8539 58.7189C8.86853 57.8478 6.23546 56.7532 4.28013 55.4043C2.42906 54.1273 0.5 52.1256 0.5 49.3136V40.161C0.5 37.349 2.42906 35.3473 4.28013 34.0703C6.23546 32.7214 8.86853 31.6268 11.8539 30.7557C17.8652 29.0017 25.9962 27.9576 34.8544 27.9576C43.7127 27.9576 51.8437 29.0017 57.855 30.7557C60.8403 31.6268 63.4734 32.7214 65.4287 34.0703ZM34.8544 31.0085C52.178 31.0085 66.2215 35.1062 66.2215 40.161V49.3136C66.2215 54.3684 52.178 58.4661 34.8544 58.4661C17.5309 58.4661 3.48734 54.3684 3.48734 49.3136V40.161C3.48734 35.1062 17.5309 31.0085 34.8544 31.0085Z" fill="#B96F00"/>
<path d="M66.2215 40.161C66.2215 45.2158 52.178 49.3136 34.8545 49.3136C17.5309 49.3136 3.48737 45.2158 3.48737 40.161C3.48737 35.1062 17.5309 31.0085 34.8545 31.0085C52.178 31.0085 66.2215 35.1062 66.2215 40.161Z" fill="#FFCF23"/>
<path fill-rule="evenodd" clip-rule="evenodd" d="M57.855 49.5663C51.8437 51.3204 43.7127 52.3644 34.8544 52.3644C25.9962 52.3644 17.8652 51.3204 11.8539 49.5663C8.86853 48.6952 6.23546 47.6006 4.28013 46.2517C2.42906 44.9747 0.5 42.973 0.5 40.161C0.5 37.349 2.42906 35.3473 4.28013 34.0703C6.23546 32.7214 8.86853 31.6268 11.8539 30.7557C17.8652 29.0017 25.9962 27.9576 34.8544 27.9576C43.7127 27.9576 51.8437 29.0017 57.855 30.7557C60.8403 31.6268 63.4734 32.7214 65.4287 34.0703C67.2798 35.3473 69.2089 37.349 69.2089 40.161C69.2089 42.973 67.2798 44.9747 65.4287 46.2517C63.4734 47.6006 60.8403 48.6952 57.855 49.5663ZM34.8544 49.3136C52.178 49.3136 66.2215 45.2158 66.2215 40.161C66.2215 35.1062 52.178 31.0085 34.8544 31.0085C17.5309 31.0085 3.48734 35.1062 3.48734 40.161C3.48734 45.2158 17.5309 49.3136 34.8544 49.3136Z" fill="#B96F00"/>
<path fill-rule="evenodd" clip-rule="evenodd" d="M10.9557 46.2627C11.7806 46.2627 12.4494 46.9457 12.4494 47.7881V56.178C12.4494 57.0204 11.7806 57.7034 10.9557 57.7034C10.1308 57.7034 9.46204 57.0204 9.46204 56.178V47.7881C9.46204 46.9457 10.1308 46.2627 10.9557 46.2627Z" fill="#B96F00"/>
<path fill-rule="evenodd" clip-rule="evenodd" d="M58.7532 46.2627C59.5781 46.2627 60.2469 46.9457 60.2469 47.7881V56.178C60.2469 57.0204 59.5781 57.7034 58.7532 57.7034C57.9283 57.7034 57.2595 57.0204 57.2595 56.178V47.7881C57.2595 46.9457 57.9283 46.2627 58.7532 46.2627Z" fill="#B96F00"/>
<path fill-rule="evenodd" clip-rule="evenodd" d="M22.905 49.3136C23.73 49.3136 24.3987 49.9965 24.3987 50.839V57.7034C24.3987 58.5459 23.73 59.2288 22.905 59.2288C22.0801 59.2288 21.4114 58.5459 21.4114 57.7034V50.839C21.4114 49.9965 22.0801 49.3136 22.905 49.3136Z" fill="#B96F00"/>
<path fill-rule="evenodd" clip-rule="evenodd" d="M48.2974 49.3136C49.1224 49.3136 49.7911 49.9965 49.7911 50.839V57.7034C49.7911 58.5459 49.1224 59.2288 48.2974 59.2288C47.4725 59.2288 46.8038 58.5459 46.8038 57.7034V50.839C46.8038 49.9965 47.4725 49.3136 48.2974 49.3136Z" fill="#B96F00"/>
<path fill-rule="evenodd" clip-rule="evenodd" d="M36.3481 49.3136C37.173 49.3136 37.8418 49.9965 37.8418 50.839V57.7034C37.8418 58.5459 37.173 59.2288 36.3481 59.2288C35.5232 59.2288 34.8544 58.5459 34.8544 57.7034V50.839C34.8544 49.9965 35.5232 49.3136 36.3481 49.3136Z" fill="#B96F00"/>
<path d="M79.6646 26.4322C79.6646 21.3774 65.6211 17.2797 48.2975 17.2797C30.9739 17.2797 16.9304 21.3774 16.9304 26.4322V35.5847C16.9304 40.6396 30.9739 44.7373 48.2975 44.7373C65.6211 44.7373 79.6646 40.6396 79.6646 35.5847V26.4322Z" fill="#D18A00"/>
<path fill-rule="evenodd" clip-rule="evenodd" d="M78.8718 20.3415C80.7229 21.6185 82.6519 23.6202 82.6519 26.4322V35.5848C82.6519 38.3968 80.7229 40.3985 78.8718 41.6754C76.9165 43.0243 74.2834 44.119 71.2981 44.99C65.2867 46.7441 57.1558 47.7881 48.2975 47.7881C39.4392 47.7881 31.3082 46.7441 25.2969 44.99C22.3116 44.119 19.6785 43.0243 17.7232 41.6754C15.8721 40.3985 13.9431 38.3968 13.9431 35.5848V26.4322C13.9431 23.6202 15.8721 21.6185 17.7232 20.3415C19.6785 18.9926 22.3116 17.898 25.2969 17.0269C31.3082 15.2729 39.4392 14.2288 48.2975 14.2288C57.1558 14.2288 65.2867 15.2729 71.2981 17.0269C74.2834 17.898 76.9165 18.9926 78.8718 20.3415ZM48.2975 17.2797C65.6211 17.2797 79.6646 21.3774 79.6646 26.4322V35.5848C79.6646 40.6396 65.6211 44.7373 48.2975 44.7373C30.9739 44.7373 16.9304 40.6396 16.9304 35.5848V26.4322C16.9304 21.3774 30.9739 17.2797 48.2975 17.2797Z" fill="#B96F00"/>
<path d="M79.6646 26.4322C79.6646 31.487 65.6211 35.5847 48.2975 35.5847C30.9739 35.5847 16.9304 31.487 16.9304 26.4322C16.9304 21.3774 30.9739 17.2797 48.2975 17.2797C65.6211 17.2797 79.6646 21.3774 79.6646 26.4322Z" fill="#FFCF23"/>
<path fill-rule="evenodd" clip-rule="evenodd" d="M71.2981 35.8375C65.2867 37.5915 57.1558 38.6356 48.2975 38.6356C39.4392 38.6356 31.3082 37.5915 25.2969 35.8375C22.3116 34.9664 19.6785 33.8718 17.7232 32.5229C15.8721 31.2459 13.9431 29.2442 13.9431 26.4322C13.9431 23.6202 15.8721 21.6185 17.7232 20.3415C19.6785 18.9926 22.3116 17.898 25.2969 17.0269C31.3082 15.2729 39.4392 14.2288 48.2975 14.2288C57.1558 14.2288 65.2867 15.2729 71.2981 17.0269C74.2834 17.898 76.9165 18.9926 78.8718 20.3415C80.7229 21.6185 82.6519 23.6202 82.6519 26.4322C82.6519 29.2442 80.7229 31.2459 78.8718 32.5229C76.9165 33.8718 74.2834 34.9664 71.2981 35.8375ZM48.2975 35.5848C65.6211 35.5848 79.6646 31.487 79.6646 26.4322C79.6646 21.3774 65.6211 17.2797 48.2975 17.2797C30.9739 17.2797 16.9304 21.3774 16.9304 26.4322C16.9304 31.487 30.9739 35.5848 48.2975 35.5848Z" fill="#B96F00"/>
<path fill-rule="evenodd" clip-rule="evenodd" d="M24.3988 32.5339C25.2237 32.5339 25.8924 33.2169 25.8924 34.0593V42.4492C25.8924 43.2916 25.2237 43.9746 24.3988 43.9746C23.5738 43.9746 22.9051 43.2916 22.9051 42.4492V34.0593C22.9051 33.2169 23.5738 32.5339 24.3988 32.5339Z" fill="#B96F00"/>
<path fill-rule="evenodd" clip-rule="evenodd" d="M72.1962 32.5339C73.0211 32.5339 73.6899 33.2169 73.6899 34.0593V42.4492C73.6899 43.2916 73.0211 43.9746 72.1962 43.9746C71.3713 43.9746 70.7025 43.2916 70.7025 42.4492V34.0593C70.7025 33.2169 71.3713 32.5339 72.1962 32.5339Z" fill="#B96F00"/>
<path fill-rule="evenodd" clip-rule="evenodd" d="M36.3481 35.5847C37.173 35.5847 37.8418 36.2677 37.8418 37.1102V43.9746C37.8418 44.817 37.173 45.5 36.3481 45.5C35.5232 45.5 34.8544 44.817 34.8544 43.9746V37.1102C34.8544 36.2677 35.5232 35.5847 36.3481 35.5847Z" fill="#B96F00"/>
<path fill-rule="evenodd" clip-rule="evenodd" d="M61.7405 35.5847C62.5654 35.5847 63.2342 36.2677 63.2342 37.1102V43.9746C63.2342 44.817 62.5654 45.5 61.7405 45.5C60.9156 45.5 60.2468 44.817 60.2468 43.9746V37.1102C60.2468 36.2677 60.9156 35.5847 61.7405 35.5847Z" fill="#B96F00"/>
<path fill-rule="evenodd" clip-rule="evenodd" d="M49.7912 35.5847C50.6161 35.5847 51.2848 36.2677 51.2848 37.1102V43.9746C51.2848 44.817 50.6161 45.5 49.7912 45.5C48.9662 45.5 48.2975 44.817 48.2975 43.9746V37.1102C48.2975 36.2677 48.9662 35.5847 49.7912 35.5847Z" fill="#B96F00"/>
<path d="M70.7026 12.7034C70.7026 7.64857 56.659 3.55084 39.3355 3.55084C22.0119 3.55084 7.96838 7.64857 7.96838 12.7034V21.8559C7.96838 26.9107 22.0119 31.0085 39.3355 31.0085C56.659 31.0085 70.7026 26.9107 70.7026 21.8559V12.7034Z" fill="#D18A00"/>
<path fill-rule="evenodd" clip-rule="evenodd" d="M69.9098 6.61271C71.7608 7.88969 73.6899 9.89138 73.6899 12.7034V21.8559C73.6899 24.6679 71.7608 26.6696 69.9098 27.9466C67.9544 29.2955 65.3214 30.3901 62.336 31.2612C56.3247 33.0153 48.1937 34.0593 39.3354 34.0593C30.4772 34.0593 22.3462 33.0153 16.3349 31.2612C13.3495 30.3901 10.7165 29.2955 8.76115 27.9466C6.91008 26.6696 4.98102 24.6679 4.98102 21.8559V12.7034C4.98102 9.89138 6.91008 7.88969 8.76115 6.61271C10.7165 5.2638 13.3495 4.16919 16.3349 3.2981C22.3462 1.54407 30.4772 0.5 39.3354 0.5C48.1937 0.5 56.3247 1.54407 62.336 3.2981C65.3214 4.16919 67.9544 5.2638 69.9098 6.61271ZM39.3354 3.55085C56.659 3.55085 70.7025 7.64858 70.7025 12.7034V21.8559C70.7025 26.9107 56.659 31.0085 39.3354 31.0085C22.0119 31.0085 7.96836 26.9107 7.96836 21.8559V12.7034C7.96836 7.64858 22.0119 3.55085 39.3354 3.55085Z" fill="#B96F00"/>
<path d="M70.7026 12.7034C70.7026 17.7582 56.659 21.8559 39.3355 21.8559C22.0119 21.8559 7.96838 17.7582 7.96838 12.7034C7.96838 7.64857 22.0119 3.55084 39.3355 3.55084C56.659 3.55084 70.7026 7.64857 70.7026 12.7034Z" fill="#FFD952"/>
<path fill-rule="evenodd" clip-rule="evenodd" d="M62.336 22.1087C56.3247 23.8627 48.1937 24.9068 39.3354 24.9068C30.4772 24.9068 22.3462 23.8627 16.3349 22.1087C13.3495 21.2376 10.7165 20.143 8.76115 18.7941C6.91008 17.5171 4.98102 15.5154 4.98102 12.7034C4.98102 9.89138 6.91008 7.88969 8.76115 6.61271C10.7165 5.2638 13.3495 4.16919 16.3349 3.2981C22.3462 1.54407 30.4772 0.5 39.3354 0.5C48.1937 0.5 56.3247 1.54407 62.336 3.2981C65.3214 4.16919 67.9544 5.2638 69.9098 6.61271C71.7608 7.88969 73.6899 9.89138 73.6899 12.7034C73.6899 15.5154 71.7608 17.5171 69.9098 18.7941C67.9544 20.143 65.3214 21.2376 62.336 22.1087ZM39.3354 21.8559C56.659 21.8559 70.7025 17.7582 70.7025 12.7034C70.7025 7.64858 56.659 3.55085 39.3354 3.55085C22.0119 3.55085 7.96836 7.64858 7.96836 12.7034C7.96836 17.7582 22.0119 21.8559 39.3354 21.8559Z" fill="#B96F00"/>
<path d="M57.2595 11.9407C57.2595 14.8893 49.2346 17.2797 39.3354 17.2797C29.4362 17.2797 21.4114 14.8893 21.4114 11.9407C21.4114 8.99203 29.4362 6.60168 39.3354 6.60168C49.2346 6.60168 57.2595 8.99203 57.2595 11.9407Z" fill="#FEE790"/>
<path fill-rule="evenodd" clip-rule="evenodd" d="M15.4367 18.8051C16.2617 18.8051 16.9304 19.488 16.9304 20.3305V28.7203C16.9304 29.5628 16.2617 30.2457 15.4367 30.2457C14.6118 30.2457 13.9431 29.5628 13.9431 28.7203V20.3305C13.9431 19.488 14.6118 18.8051 15.4367 18.8051Z" fill="#B96F00"/>
<path fill-rule="evenodd" clip-rule="evenodd" d="M63.2342 18.8051C64.0591 18.8051 64.7278 19.488 64.7278 20.3305V28.7203C64.7278 29.5628 64.0591 30.2457 63.2342 30.2457C62.4092 30.2457 61.7405 29.5628 61.7405 28.7203V20.3305C61.7405 19.488 62.4092 18.8051 63.2342 18.8051Z" fill="#B96F00"/>
<path fill-rule="evenodd" clip-rule="evenodd" d="M27.3861 21.8559C28.211 21.8559 28.8797 22.5389 28.8797 23.3814V30.2458C28.8797 31.0882 28.211 31.7712 27.3861 31.7712C26.5611 31.7712 25.8924 31.0882 25.8924 30.2458V23.3814C25.8924 22.5389 26.5611 21.8559 27.3861 21.8559Z" fill="#B96F00"/>
<path fill-rule="evenodd" clip-rule="evenodd" d="M52.7785 21.8559C53.6034 21.8559 54.2721 22.5389 54.2721 23.3814V30.2458C54.2721 31.0882 53.6034 31.7712 52.7785 31.7712C51.9535 31.7712 51.2848 31.0882 51.2848 30.2458V23.3814C51.2848 22.5389 51.9535 21.8559 52.7785 21.8559Z" fill="#B96F00"/>
<path fill-rule="evenodd" clip-rule="evenodd" d="M40.8291 21.8559C41.6541 21.8559 42.3228 22.5389 42.3228 23.3814V30.2458C42.3228 31.0882 41.6541 31.7712 40.8291 31.7712C40.0042 31.7712 39.3354 31.0882 39.3354 30.2458V23.3814C39.3354 22.5389 40.0042 21.8559 40.8291 21.8559Z" fill="#B96F00"/>
<path fill-rule="evenodd" clip-rule="evenodd" d="M9.46205 11.178C10.287 11.178 10.9557 11.8609 10.9557 12.7034C10.9557 12.9224 11.146 13.5285 12.4813 14.377C13.7371 15.175 15.6536 15.9493 18.1544 16.6214C23.1339 17.9596 30.095 18.8051 37.8418 18.8051C38.6667 18.8051 39.3355 19.4881 39.3355 20.3305C39.3355 21.173 38.6667 21.8559 37.8418 21.8559C29.9149 21.8559 22.6862 20.994 17.3942 19.5718C14.7592 18.8636 12.5196 17.9945 10.9032 16.9674C9.3664 15.9909 7.96838 14.5906 7.96838 12.7034C7.96838 11.8609 8.63712 11.178 9.46205 11.178Z" fill="#FFF1B9"/>
</g>
<defs>
<clipPath id="clip0_104_138">
<rect width="118" height="90" fill="white" transform="translate(0.5 0.5)"/>
</clipPath>
</defs>
</svg>
