<svg width="78" height="56" viewBox="0 0 78 56" fill="none" xmlns="http://www.w3.org/2000/svg">
<path d="M71.1602 2H11.1602C7.84645 2 5.16016 4.68629 5.16016 8V50C5.16016 53.3137 7.84645 56 11.1602 56H71.1602C74.4739 56 77.1602 53.3137 77.1602 50V8C77.1602 4.68629 74.4739 2 71.1602 2Z" fill="#021024" fill-opacity="0.1"/>
<path d="M57 52C57 50.8954 57.8954 50 59 50H65C66.1046 50 67 50.8954 67 52V54C67 55.1046 66.1046 56 65 56H59C57.8954 56 57 55.1046 57 54V52Z" fill="#405064"/>
<path d="M11 52C11 50.8954 11.8954 50 13 50H19C20.1046 50 21 50.8954 21 52V54C21 55.1046 20.1046 56 19 56H13C11.8954 56 11 55.1046 11 54V52Z" fill="#405064"/>
<path d="M5.16016 6C5.16016 3.79086 6.95102 2 9.16016 2H69.1602C71.3693 2 73.1602 3.79086 73.1602 6V48C73.1602 50.2091 71.3693 52 69.1602 52H9.16016C6.95102 52 5.16016 50.2091 5.16016 48V6Z" fill="#6A7788"/>
<path fill-rule="evenodd" clip-rule="evenodd" d="M9.16016 0H69.1602C72.4739 0 75.1602 2.68629 75.1602 6V48C75.1602 51.3137 72.4739 54 69.1602 54H9.16016C5.84645 54 3.16016 51.3137 3.16016 48V6C3.16016 2.68629 5.84645 0 9.16016 0ZM9.16016 2C6.95102 2 5.16016 3.79086 5.16016 6V48C5.16016 50.2091 6.95102 52 9.16016 52H69.1602C71.3693 52 73.1602 50.2091 73.1602 48V6C73.1602 3.79086 71.3693 2 69.1602 2H9.16016Z" fill="#2C3C4F"/>
<path fill-rule="evenodd" clip-rule="evenodd" d="M5.16016 44V48C5.16016 50.2091 6.95102 52 9.16016 52H69.1602C71.3693 52 73.1602 50.2091 73.1602 48V6C73.1602 3.79086 71.3693 2 69.1602 2H65.1602V12C65.1602 29.6731 50.8333 44 33.1602 44H5.16016Z" fill="#57677B"/>
<path d="M67 47C67 47.5523 66.5523 48 66 48C65.4477 48 65 47.5523 65 47C65 46.4477 65.4477 46 66 46C66.5523 46 67 46.4477 67 47Z" fill="#405064"/>
<path d="M71.4062 47C71.4062 47.5523 70.9585 48 70.4062 48C69.854 48 69.4062 47.5523 69.4062 47C69.4062 46.4477 69.854 46 70.4062 46C70.9585 46 71.4062 46.4477 71.4062 47Z" fill="#405064"/>
<path d="M72.625 39.75C72.625 40.3023 72.1773 40.75 71.625 40.75C71.0727 40.75 70.625 40.3023 70.625 39.75C70.625 39.1977 71.0727 38.75 71.625 38.75C72.1773 38.75 72.625 39.1977 72.625 39.75Z" fill="#405064"/>
<path d="M71 35.25C71 35.8023 70.5523 36.25 70 36.25C69.4477 36.25 69 35.8023 69 35.25C69 34.6977 69.4477 34.25 70 34.25C70.5523 34.25 71 34.6977 71 35.25Z" fill="#405064"/>
<path d="M69.7188 40.25C69.7188 40.8023 69.271 41.25 68.7188 41.25C68.1665 41.25 67.7188 40.8023 67.7188 40.25C67.7188 39.6977 68.1665 39.25 68.7188 39.25C69.271 39.25 69.7188 39.6977 69.7188 40.25Z" fill="#405064"/>
<path d="M65.7812 43C65.7812 43.5523 65.3335 44 64.7812 44C64.229 44 63.7812 43.5523 63.7812 43C63.7812 42.4477 64.229 42 64.7812 42C65.3335 42 65.7812 42.4477 65.7812 43Z" fill="#405064"/>
<path d="M64.4062 47C64.4062 47.5523 63.9585 48 63.4062 48C62.854 48 62.4062 47.5523 62.4062 47C62.4062 46.4477 62.854 46 63.4062 46C63.9585 46 64.4062 46.4477 64.4062 47Z" fill="#405064"/>
<path d="M69 49.8125C69 50.3648 68.5523 50.8125 68 50.8125C67.4477 50.8125 67 50.3648 67 49.8125C67 49.2602 67.4477 48.8125 68 48.8125C68.5523 48.8125 69 49.2602 69 49.8125Z" fill="#405064"/>
<path d="M65.2344 49.625C65.2344 50.1773 64.7867 50.625 64.2344 50.625C63.6821 50.625 63.2344 50.1773 63.2344 49.625C63.2344 49.0727 63.6821 48.625 64.2344 48.625C64.7867 48.625 65.2344 49.0727 65.2344 49.625Z" fill="#405064"/>
<path d="M56.1094 49.625C56.1094 50.1773 55.6617 50.625 55.1094 50.625C54.5571 50.625 54.1094 50.1773 54.1094 49.625C54.1094 49.0727 54.5571 48.625 55.1094 48.625C55.6617 48.625 56.1094 49.0727 56.1094 49.625Z" fill="#405064"/>
<path d="M62.2031 45.2812C62.2031 45.8335 61.7554 46.2812 61.2031 46.2812C60.6508 46.2812 60.2031 45.8335 60.2031 45.2812C60.2031 44.729 60.6508 44.2812 61.2031 44.2812C61.7554 44.2812 62.2031 44.729 62.2031 45.2812Z" fill="#405064"/>
<path d="M70 43.5C70 44.3284 69.3284 45 68.5 45C67.6716 45 67 44.3284 67 43.5C67 42.6716 67.6716 42 68.5 42C69.3284 42 70 42.6716 70 43.5Z" fill="#405064"/>
<path d="M61.4688 48.3125C61.4688 49.1409 60.7972 49.8125 59.9688 49.8125C59.1403 49.8125 58.4688 49.1409 58.4688 48.3125C58.4688 47.4841 59.1403 46.8125 59.9688 46.8125C60.7972 46.8125 61.4688 47.4841 61.4688 48.3125Z" fill="#405064"/>
<path fill-rule="evenodd" clip-rule="evenodd" d="M5 6C5 3.79086 6.79086 2 9 2H47C47.5523 2 48 2.44772 48 3C48 3.55228 47.5523 4 47 4H9C7.89543 4 7 4.89543 7 6V9C7 9.55228 6.55228 10 6 10C5.44772 10 5 9.55228 5 9V6Z" fill="#93AAC7"/>
<path d="M22 14C22 16.7614 19.7614 19 17 19C14.2386 19 12 16.7614 12 14C12 11.2386 14.2386 9 17 9C19.7614 9 22 11.2386 22 14Z" fill="#93C0BB"/>
<path fill-rule="evenodd" clip-rule="evenodd" d="M17 10C14.7909 10 13 11.7909 13 14C13 16.2091 14.7909 18 17 18C19.2091 18 21 16.2091 21 14C21 11.7909 19.2091 10 17 10ZM11 14C11 10.6863 13.6863 8 17 8C20.3137 8 23 10.6863 23 14C23 17.3137 20.3137 20 17 20C13.6863 20 11 17.3137 11 14Z" fill="#405064"/>
<path d="M22 28C22 30.7614 19.7614 33 17 33C14.2386 33 12 30.7614 12 28C12 25.2386 14.2386 23 17 23C19.7614 23 22 25.2386 22 28Z" fill="#93C0BB"/>
<path fill-rule="evenodd" clip-rule="evenodd" d="M17 24C14.7909 24 13 25.7909 13 28C13 30.2091 14.7909 32 17 32C19.2091 32 21 30.2091 21 28C21 25.7909 19.2091 24 17 24ZM11 28C11 24.6863 13.6863 22 17 22C20.3137 22 23 24.6863 23 28C23 31.3137 20.3137 34 17 34C13.6863 34 11 31.3137 11 28Z" fill="#405064"/>
<path d="M22 42C22 44.7614 19.7614 47 17 47C14.2386 47 12 44.7614 12 42C12 39.2386 14.2386 37 17 37C19.7614 37 22 39.2386 22 42Z" fill="#93C0BB"/>
<path fill-rule="evenodd" clip-rule="evenodd" d="M17 38C14.7909 38 13 39.7909 13 42C13 44.2091 14.7909 46 17 46C19.2091 46 21 44.2091 21 42C21 39.7909 19.2091 38 17 38ZM11 42C11 38.6863 13.6863 36 17 36C20.3137 36 23 38.6863 23 42C23 45.3137 20.3137 48 17 48C13.6863 48 11 45.3137 11 42Z" fill="#405064"/>
<path d="M36 14C36 16.7614 33.7614 19 31 19C28.2386 19 26 16.7614 26 14C26 11.2386 28.2386 9 31 9C33.7614 9 36 11.2386 36 14Z" fill="#93C0BB"/>
<path fill-rule="evenodd" clip-rule="evenodd" d="M31 10C28.7909 10 27 11.7909 27 14C27 16.2091 28.7909 18 31 18C33.2091 18 35 16.2091 35 14C35 11.7909 33.2091 10 31 10ZM25 14C25 10.6863 27.6863 8 31 8C34.3137 8 37 10.6863 37 14C37 17.3137 34.3137 20 31 20C27.6863 20 25 17.3137 25 14Z" fill="#405064"/>
<path d="M36 28C36 30.7614 33.7614 33 31 33C28.2386 33 26 30.7614 26 28C26 25.2386 28.2386 23 31 23C33.7614 23 36 25.2386 36 28Z" fill="#93C0BB"/>
<path fill-rule="evenodd" clip-rule="evenodd" d="M31 24C28.7909 24 27 25.7909 27 28C27 30.2091 28.7909 32 31 32C33.2091 32 35 30.2091 35 28C35 25.7909 33.2091 24 31 24ZM25 28C25 24.6863 27.6863 22 31 22C34.3137 22 37 24.6863 37 28C37 31.3137 34.3137 34 31 34C27.6863 34 25 31.3137 25 28Z" fill="#405064"/>
<path d="M36 42C36 44.7614 33.7614 47 31 47C28.2386 47 26 44.7614 26 42C26 39.2386 28.2386 37 31 37C33.7614 37 36 39.2386 36 42Z" fill="#93C0BB"/>
<path fill-rule="evenodd" clip-rule="evenodd" d="M31 38C28.7909 38 27 39.7909 27 42C27 44.2091 28.7909 46 31 46C33.2091 46 35 44.2091 35 42C35 39.7909 33.2091 38 31 38ZM25 42C25 38.6863 27.6863 36 31 36C34.3137 36 37 38.6863 37 42C37 45.3137 34.3137 48 31 48C27.6863 48 25 45.3137 25 42Z" fill="#405064"/>
<path d="M50 14C50 16.7614 47.7614 19 45 19C42.2386 19 40 16.7614 40 14C40 11.2386 42.2386 9 45 9C47.7614 9 50 11.2386 50 14Z" fill="#93C0BB"/>
<path fill-rule="evenodd" clip-rule="evenodd" d="M45 10C42.7909 10 41 11.7909 41 14C41 16.2091 42.7909 18 45 18C47.2091 18 49 16.2091 49 14C49 11.7909 47.2091 10 45 10ZM39 14C39 10.6863 41.6863 8 45 8C48.3137 8 51 10.6863 51 14C51 17.3137 48.3137 20 45 20C41.6863 20 39 17.3137 39 14Z" fill="#405064"/>
<path d="M50 28C50 30.7614 47.7614 33 45 33C42.2386 33 40 30.7614 40 28C40 25.2386 42.2386 23 45 23C47.7614 23 50 25.2386 50 28Z" fill="#93C0BB"/>
<path fill-rule="evenodd" clip-rule="evenodd" d="M45 24C42.7909 24 41 25.7909 41 28C41 30.2091 42.7909 32 45 32C47.2091 32 49 30.2091 49 28C49 25.7909 47.2091 24 45 24ZM39 28C39 24.6863 41.6863 22 45 22C48.3137 22 51 24.6863 51 28C51 31.3137 48.3137 34 45 34C41.6863 34 39 31.3137 39 28Z" fill="#405064"/>
<path d="M50 42C50 44.7614 47.7614 47 45 47C42.2386 47 40 44.7614 40 42C40 39.2386 42.2386 37 45 37C47.7614 37 50 39.2386 50 42Z" fill="#93C0BB"/>
<path fill-rule="evenodd" clip-rule="evenodd" d="M45 38C42.7909 38 41 39.7909 41 42C41 44.2091 42.7909 46 45 46C47.2091 46 49 44.2091 49 42C49 39.7909 47.2091 38 45 38ZM39 42C39 38.6863 41.6863 36 45 36C48.3137 36 51 38.6863 51 42C51 45.3137 48.3137 48 45 48C41.6863 48 39 45.3137 39 42Z" fill="#405064"/>
<path fill-rule="evenodd" clip-rule="evenodd" d="M16.2149 38.7074C16.2989 38.9705 16.1536 39.2518 15.8905 39.3357C15.6109 39.425 14.7503 39.9155 14.2209 41.0817C14.1068 41.3331 13.8104 41.4444 13.5589 41.3303C13.3075 41.2162 13.1962 40.9198 13.3103 40.6683C13.9583 39.2409 15.0416 38.5569 15.5867 38.383C15.8497 38.2991 16.131 38.4444 16.2149 38.7074Z" fill="#A6E0DA"/>
<path fill-rule="evenodd" clip-rule="evenodd" d="M30.2149 38.7074C30.2989 38.9705 30.1536 39.2518 29.8905 39.3357C29.6109 39.425 28.7503 39.9155 28.2209 41.0817C28.1068 41.3331 27.8104 41.4444 27.5589 41.3303C27.3075 41.2162 27.1962 40.9198 27.3103 40.6683C27.9583 39.2409 29.0416 38.5569 29.5867 38.383C29.8497 38.2991 30.131 38.4444 30.2149 38.7074Z" fill="#A6E0DA"/>
<path fill-rule="evenodd" clip-rule="evenodd" d="M44.2153 38.7074C44.2992 38.9705 44.154 39.2518 43.8909 39.3357C43.6112 39.425 42.7507 39.9155 42.2213 41.0817C42.1071 41.3331 41.8108 41.4444 41.5593 41.3303C41.3079 41.2162 41.1966 40.9198 41.3107 40.6683C41.9587 39.2409 43.042 38.5569 43.587 38.383C43.8501 38.2991 44.1314 38.4444 44.2153 38.7074Z" fill="#A6E0DA"/>
<path fill-rule="evenodd" clip-rule="evenodd" d="M16.2149 24.7074C16.2989 24.9705 16.1536 25.2518 15.8905 25.3357C15.6109 25.425 14.7503 25.9155 14.2209 27.0817C14.1068 27.3331 13.8104 27.4444 13.5589 27.3303C13.3075 27.2162 13.1962 26.9198 13.3103 26.6683C13.9583 25.2409 15.0416 24.5569 15.5867 24.383C15.8497 24.2991 16.131 24.4444 16.2149 24.7074Z" fill="#A6E0DA"/>
<path fill-rule="evenodd" clip-rule="evenodd" d="M30.2149 24.7074C30.2989 24.9705 30.1536 25.2518 29.8905 25.3357C29.6109 25.425 28.7503 25.9155 28.2209 27.0817C28.1068 27.3331 27.8104 27.4444 27.5589 27.3303C27.3075 27.2162 27.1962 26.9198 27.3103 26.6683C27.9583 25.2409 29.0416 24.5569 29.5867 24.383C29.8497 24.2991 30.131 24.4444 30.2149 24.7074Z" fill="#A6E0DA"/>
<path fill-rule="evenodd" clip-rule="evenodd" d="M44.2153 24.7074C44.2992 24.9705 44.154 25.2518 43.8909 25.3357C43.6112 25.425 42.7507 25.9155 42.2213 27.0817C42.1071 27.3331 41.8108 27.4444 41.5593 27.3303C41.3079 27.2162 41.1966 26.9198 41.3107 26.6683C41.9587 25.2409 43.042 24.5569 43.587 24.383C43.8501 24.2991 44.1314 24.4444 44.2153 24.7074Z" fill="#A6E0DA"/>
<path fill-rule="evenodd" clip-rule="evenodd" d="M16.2149 10.7074C16.2989 10.9705 16.1536 11.2518 15.8905 11.3357C15.6109 11.425 14.7503 11.9155 14.2209 13.0817C14.1068 13.3331 13.8104 13.4444 13.5589 13.3303C13.3075 13.2162 13.1962 12.9198 13.3103 12.6683C13.9583 11.2409 15.0416 10.5569 15.5867 10.383C15.8497 10.2991 16.131 10.4444 16.2149 10.7074Z" fill="#A6E0DA"/>
<path fill-rule="evenodd" clip-rule="evenodd" d="M30.2149 10.7074C30.2989 10.9705 30.1536 11.2518 29.8905 11.3357C29.6109 11.425 28.7503 11.9155 28.2209 13.0817C28.1068 13.3331 27.8104 13.4444 27.5589 13.3303C27.3075 13.2162 27.1962 12.9198 27.3103 12.6683C27.9583 11.2409 29.0416 10.5569 29.5867 10.383C29.8497 10.2991 30.131 10.4444 30.2149 10.7074Z" fill="#A6E0DA"/>
<path fill-rule="evenodd" clip-rule="evenodd" d="M44.2153 10.7074C44.2992 10.9705 44.154 11.2518 43.8909 11.3357C43.6112 11.425 42.7507 11.9155 42.2213 13.0817C42.1071 13.3331 41.8108 13.4444 41.5593 13.3303C41.3079 13.2162 41.1966 12.9198 41.3107 12.6683C41.9587 11.2409 43.042 10.5569 43.587 10.383C43.8501 10.2991 44.1314 10.4444 44.2153 10.7074Z" fill="#A6E0DA"/>
<path d="M55 12C55 10.8954 55.8954 10 57 10H67C68.1046 10 69 10.8954 69 12V30C69 31.1046 68.1046 32 67 32H57C55.8954 32 55 31.1046 55 30V12Z" fill="#10C69A"/>
<path fill-rule="evenodd" clip-rule="evenodd" d="M57 8H67C69.2091 8 71 9.79086 71 12V30C71 32.2091 69.2091 34 67 34H57C54.7909 34 53 32.2091 53 30V12C53 9.79086 54.7909 8 57 8ZM57 10C55.8954 10 55 10.8954 55 12V30C55 31.1046 55.8954 32 57 32H67C68.1046 32 69 31.1046 69 30V12C69 10.8954 68.1046 10 67 10H57Z" fill="#405064"/>
<path d="M57 13C57 12.4477 57.4477 12 58 12H66C66.5523 12 67 12.4477 67 13V17C67 17.5523 66.5523 18 66 18H58C57.4477 18 57 17.5523 57 17V13Z" fill="#74FFDD"/>
<path d="M2 14C2 13.4477 2.44772 13 3 13H5C5.55228 13 6 13.4477 6 14V16C6 16.5523 5.55228 17 5 17H3C2.44772 17 2 16.5523 2 16V14Z" fill="#57677B"/>
<path fill-rule="evenodd" clip-rule="evenodd" d="M3 11H5C6.65685 11 8 12.3431 8 14V16C8 17.6569 6.65685 19 5 19H3C1.34315 19 0 17.6569 0 16V14C0 12.3431 1.34315 11 3 11ZM3 13C2.44772 13 2 13.4477 2 14V16C2 16.5523 2.44772 17 3 17H5C5.55228 17 6 16.5523 6 16V14C6 13.4477 5.55228 13 5 13H3Z" fill="#2C3B4F"/>
<path d="M2 38C2 37.4477 2.44772 37 3 37H5C5.55228 37 6 37.4477 6 38V40C6 40.5523 5.55228 41 5 41H3C2.44772 41 2 40.5523 2 40V38Z" fill="#57677B"/>
<path fill-rule="evenodd" clip-rule="evenodd" d="M3 35H5C6.65685 35 8 36.3431 8 38V40C8 41.6569 6.65685 43 5 43H3C1.34315 43 0 41.6569 0 40V38C0 36.3431 1.34315 35 3 35ZM3 37C2.44772 37 2 37.4477 2 38V40C2 40.5523 2.44772 41 3 41H5C5.55228 41 6 40.5523 6 40V38C6 37.4477 5.55228 37 5 37H3Z" fill="#2C3B4F"/>
</svg>
