<svg width="72" height="82" viewBox="0 0 72 82" fill="none" xmlns="http://www.w3.org/2000/svg">
<g clip-path="url(#clip0_101_16589)">
<path d="M46.3306 26.6138C48.7648 23.4215 52.8886 18.2866 57.5424 13.9337C57.9467 13.5555 58.1762 13.0266 58.1762 12.473C58.1762 11.3678 57.7194 9.95797 56.5679 8.7921C55.3821 7.59146 53.5914 6.77529 51.1343 6.63447C49.7633 6.5559 48.7492 6.57568 47.9558 6.60485C47.7744 6.61152 47.614 6.618 47.4703 6.6238C46.9413 6.64516 46.6391 6.65737 46.3486 6.63641C45.9122 6.60492 45.4622 6.52588 43.707 5.24329C41.0091 3.27183 38.7579 2.6454 36.6925 2.91732C35.7111 3.04653 34.8892 3.36561 34.2283 3.66893C33.9554 3.79418 33.6888 3.92706 33.4603 4.04097L33.3393 4.10121C33.0707 4.23464 32.8565 4.33809 32.6569 4.42142C32.0939 4.65649 31.5376 4.94218 31.0495 5.19281L30.9042 5.2674C30.3545 5.54903 29.8624 5.79498 29.355 5.99583C28.3858 6.37944 27.4035 6.58071 26.1935 6.36636C24.1505 6.00445 22.3334 6.78007 21.0435 7.63868C19.7407 8.50591 18.722 9.6202 18.148 10.428C17.6762 11.0919 17.6542 11.9756 18.0923 12.6622C20.0004 15.653 24.335 21.9177 28.507 26.4066C24.7595 28.5709 19.8641 31.9716 15.371 36.3814C10.4687 41.1928 5.92462 47.3245 3.99505 54.4791C-0.431629 70.8929 10.7805 81.4999 21.0274 81.4999H53.131C53.166 81.4999 53.2009 81.499 53.2357 81.4972C56.5591 81.3229 61.398 80.4981 65.2955 77.3941C69.3206 74.1885 71.9982 68.833 71.4214 60.364C70.8372 51.7873 66.1553 44.2487 60.7842 38.3909C55.9554 33.1246 50.4219 29.0534 46.3306 26.6138Z" fill="#021024" fill-opacity="0.1"/>
<path fill-rule="evenodd" clip-rule="evenodd" d="M64.2499 15.754C54.1115 16.6624 44.5511 22.1974 41.087 24.828C40.4273 25.329 39.4863 25.2003 38.9853 24.5405C38.4843 23.8808 38.613 22.9398 39.2727 22.4388C43.0039 19.6055 53.0913 13.7417 63.9822 12.7659C64.8073 12.692 65.5361 13.301 65.6101 14.1261C65.684 14.9512 65.075 15.68 64.2499 15.754Z" fill="#085137"/>
<path fill-rule="evenodd" clip-rule="evenodd" d="M34.9219 24.8849C34.8583 24.059 34.1372 23.4409 33.3113 23.5044C29.9793 23.7607 25.771 24.3989 21.6875 25.4198C17.6276 26.4348 13.5711 27.8571 10.621 29.7345C9.92208 30.1793 9.71605 31.1064 10.1608 31.8053C10.6056 32.5042 11.5327 32.7102 12.2316 32.2655C14.7815 30.6428 18.4751 29.3152 22.4151 28.3302C26.3316 27.3511 30.3733 26.7393 33.5413 26.4956C34.3673 26.432 34.9854 25.7109 34.9219 24.8849Z" fill="#085137"/>
<path fill-rule="evenodd" clip-rule="evenodd" d="M37.2432 27.3205C37.1932 27.3593 37.1442 27.3978 37.0961 27.4362C36.4472 27.9539 35.5047 27.8484 34.991 27.2006C34.4774 26.5529 34.587 25.6081 35.236 25.0904C38.0621 22.8359 43.4437 20.1952 48.3499 18.7483C50.8045 18.0243 53.2737 17.558 55.3253 17.6445C57.3077 17.728 59.4669 18.378 60.2956 20.4996C60.6111 21.3074 60.7306 22.1736 60.4752 23.0262C60.2183 23.8839 59.6464 24.5132 58.9893 24.964C57.7572 25.8094 55.9167 26.2358 53.9358 26.5064C51.257 26.8724 47.7373 27.0113 43.8774 27.1635C41.9485 27.2396 39.9347 27.3191 37.8983 27.4319C37.6663 27.4448 37.444 27.4041 37.2432 27.3205ZM42.5307 24.211C43.0242 24.1911 43.5104 24.1721 43.9887 24.1533C47.7382 24.0061 51.0067 23.8778 53.5445 23.5311C55.5049 23.2633 56.7091 22.897 57.3039 22.4889C57.5603 22.313 57.5974 22.2005 57.6049 22.1754C57.6139 22.1453 57.6533 21.9878 57.5039 21.6053C57.3458 21.2006 56.8279 20.7139 55.1853 20.6447C53.6118 20.5784 51.5079 20.9432 49.1838 21.6286C46.938 22.291 44.6112 23.2143 42.5307 24.211Z" fill="#085137"/>
<path fill-rule="evenodd" clip-rule="evenodd" d="M33.9538 26.4001C34.0074 26.4341 34.0599 26.468 34.1112 26.502C34.8034 26.9601 35.7329 26.7716 36.1871 26.0808C36.6414 25.3901 36.4484 24.4588 35.7562 24.0006C32.6839 21.9672 26.7608 20.1427 21.6634 19.3073C19.0973 18.8868 16.599 18.6923 14.6621 18.8893C13.7044 18.9867 12.7594 19.191 11.9944 19.6014C11.1936 20.0311 10.4543 20.7759 10.3365 21.9128C10.2537 22.7132 10.473 23.4606 10.9517 24.0825C11.3993 24.6642 12.0188 25.0674 12.6526 25.3594C13.9048 25.9364 15.6281 26.2645 17.5834 26.4618C21.5366 26.8606 27.0776 26.7768 33.3117 26.5688C33.5438 26.561 33.7614 26.5009 33.9538 26.4001ZM27.4614 23.7179C23.6642 23.7784 20.3938 23.73 17.8695 23.4753C15.9874 23.2854 14.6758 22.9935 13.8951 22.6339C13.5707 22.4844 13.4161 22.3579 13.3506 22.2891C13.3694 22.2773 13.3926 22.2638 13.421 22.2486C13.6903 22.1041 14.1908 21.9558 14.9798 21.8755C16.5361 21.7172 18.7359 21.8667 21.1932 22.2694C23.282 22.6117 25.4555 23.1192 27.4614 23.7179ZM13.2766 22.3458C13.2771 22.3459 13.2804 22.3428 13.285 22.3365C13.2784 22.3426 13.2761 22.3457 13.2766 22.3458ZM13.317 22.2517C13.3178 22.247 13.3185 22.242 13.319 22.2369C13.3176 22.2502 13.3158 22.2516 13.3158 22.2516C13.3158 22.2516 13.3162 22.2514 13.317 22.2517Z" fill="#085137"/>
<path d="M54.1762 10.4731C48.1099 16.1472 42.9535 23.0822 41.1336 25.5449C37.1905 24.3628 33.2474 24.6583 30.5176 25.5449C25.9072 21.5258 20.1037 13.2313 17.7783 9.5865C18.6883 8.30589 21.1755 5.86288 23.8446 6.33572C27.1811 6.92677 29.3043 5.15359 31.4275 4.26701C33.5507 3.38043 35.6739 1.31181 40.527 4.85812C44.1668 7.51785 43.8635 6.33569 49.0198 6.63122C53.1449 6.86764 54.1762 9.29095 54.1762 10.4731Z" fill="#1F845F"/>
<path fill-rule="evenodd" clip-rule="evenodd" d="M42.7421 26.7335C42.2407 27.412 41.3674 27.7029 40.5593 27.4607C37.0292 26.4024 33.5025 26.6783 31.1354 27.4471C30.4668 27.6642 29.7332 27.5144 29.2033 27.0525C24.3549 22.8258 18.4192 14.3095 16.0923 10.6622C15.6542 9.97563 15.6762 9.09197 16.148 8.42806C16.722 7.62023 17.7407 6.50594 19.0435 5.63871C20.3334 4.78011 22.1505 4.00448 24.1935 4.36639C25.4035 4.58074 26.3858 4.37947 27.355 3.99586C27.8624 3.79501 28.3545 3.54906 28.9042 3.26743C28.9519 3.24298 29.0004 3.21809 29.0495 3.19284C29.5376 2.94221 30.0939 2.65653 30.6569 2.42145C30.8565 2.33812 31.0707 2.23467 31.3393 2.10124C31.3782 2.0819 31.4186 2.06176 31.4603 2.041C31.6888 1.92709 31.9554 1.79421 32.2283 1.66896C32.8892 1.36564 33.7111 1.04656 34.6925 0.91735C36.7579 0.645428 39.0091 1.27186 41.707 3.24332C43.4622 4.52591 43.9122 4.60495 44.3486 4.63644C44.6391 4.6574 44.9413 4.64519 45.4703 4.62383C45.614 4.61803 45.7744 4.61155 45.9558 4.60488C46.7492 4.57571 47.7633 4.55593 49.1343 4.6345C51.5914 4.77532 53.3821 5.59149 54.5679 6.79213C55.7194 7.95801 56.1762 9.36782 56.1762 10.4731C56.1762 11.0267 55.9467 11.5555 55.5424 11.9337C49.6222 17.4711 44.5596 24.274 42.7421 26.7335ZM54.1762 10.4731C54.1762 9.29096 53.1449 6.86765 49.0198 6.63123C47.4815 6.54306 46.4291 6.58642 45.613 6.62004C43.6935 6.69912 43.0809 6.72435 40.527 4.85813C36.3772 1.82571 34.2234 2.89882 32.3589 3.82781C32.0429 3.98525 31.7352 4.13854 31.4275 4.26702C30.9415 4.46995 30.4555 4.71934 29.955 4.97619C28.2688 5.84147 26.4174 6.79149 23.8446 6.33573C21.1755 5.86288 18.6883 8.3059 17.7783 9.58651C20.1037 13.2313 25.9072 21.5258 30.5176 25.5449C33.2474 24.6583 37.1905 24.3628 41.1336 25.5449C42.9535 23.0822 48.1099 16.1472 54.1762 10.4731Z" fill="#085137"/>
<path d="M27.0239 6.20892C28.7049 5.76834 30.0662 4.8355 31.4274 4.26709C33.8285 12.4808 35.3437 21.355 35.8012 24.7654C35.1212 24.7638 34.4602 24.7986 33.8258 24.8642C33.237 22.2154 31.0522 14.776 27.0239 6.20892Z" fill="#157351"/>
<path d="M54.1762 10.4731C48.1099 16.1472 42.9535 23.0822 41.1336 25.5449C40.4104 25.3281 39.6872 25.161 38.9714 25.0381C40.6021 20.6546 44.8947 10.8362 49.0198 6.63123C53.1449 6.86765 54.1762 9.29096 54.1762 10.4731Z" fill="#157351"/>
<path fill-rule="evenodd" clip-rule="evenodd" d="M24.7477 7.19134C25.2289 6.92016 25.8387 7.09036 26.1099 7.57148C28.0616 11.0342 29.2008 13.3119 30.5268 16.2796C30.7521 16.7838 30.5259 17.3752 30.0217 17.6005C29.5175 17.8258 28.9261 17.5997 28.7008 17.0954C27.4017 14.1881 26.2909 11.9658 24.3676 8.55351C24.0964 8.07238 24.2666 7.46252 24.7477 7.19134Z" fill="#2DB382"/>
<path fill-rule="evenodd" clip-rule="evenodd" d="M19.2081 8.88242C19.6527 8.5548 20.2787 8.64965 20.6063 9.09427C20.833 9.40194 21.0581 9.70746 21.2815 10.0107C24.5098 14.3925 27.3848 18.2947 29.6581 21.2675C29.9936 21.7062 29.9099 22.3338 29.4712 22.6693C29.0325 23.0048 28.4049 22.9211 28.0694 22.4824C25.7846 19.4946 22.8993 15.5784 19.6762 11.2036C19.4511 10.8981 19.2245 10.5904 18.9962 10.2807C18.6686 9.83605 18.7635 9.21003 19.2081 8.88242Z" fill="#26976E"/>
<path fill-rule="evenodd" clip-rule="evenodd" d="M41.9849 7.03076C42.5202 7.16671 42.8439 7.71086 42.708 8.24615C42.3286 9.73985 41.9651 11.2159 41.5978 12.7069C41.0041 15.1174 40.4007 17.567 39.7055 20.1934C39.5642 20.7273 39.0168 21.0455 38.4829 20.9042C37.949 20.7629 37.6307 20.2155 37.7721 19.6816C38.4646 17.0655 39.0588 14.6528 39.6483 12.259C40.0163 10.7649 40.3824 9.27812 40.7695 7.75384C40.9055 7.21855 41.4496 6.89482 41.9849 7.03076Z" fill="#26976E"/>
<path d="M3.92618 52.9999C7.53185 39.6304 21.0551 29.6645 28.4896 25.5851C31.0223 24.7802 37.2716 23.6533 42.0069 25.5851C50.0047 29.9953 66.3448 42.6231 67.4261 58.4999C68.5075 74.3766 57.4392 77.1691 51.1311 77.4999H19.0275C10.1379 77.4999 -0.168431 68.1824 3.92618 52.9999Z" fill="#1F845F"/>
<path fill-rule="evenodd" clip-rule="evenodd" d="M27.5275 23.8317C27.6411 23.7694 27.7604 23.7183 27.8839 23.679C29.3065 23.2269 31.6671 22.7126 34.3084 22.562C36.9349 22.4123 40.0129 22.6116 42.7624 23.7333C42.8344 23.7626 42.9046 23.7962 42.9727 23.8337C47.133 26.1278 53.3972 30.5157 58.7843 36.3909C64.1555 42.2487 68.8374 49.7873 69.4215 58.364C69.9984 66.833 67.3207 72.1885 63.2957 75.3941C59.3982 78.4981 54.5592 79.3229 51.2359 79.4971C51.201 79.499 51.1661 79.4999 51.1311 79.4999H19.0275C8.78063 79.4999 -2.43151 68.8929 1.99518 52.4791C3.92474 45.3244 8.46883 39.1928 13.3712 34.3813C18.2846 29.559 23.6792 25.9434 27.5275 23.8317ZM51.1311 77.4999H19.0275C10.1379 77.4999 -0.168429 68.1824 3.92618 52.9999C7.53185 39.6304 21.0551 29.6645 28.4896 25.5851C31.0223 24.7802 37.2716 23.6533 42.0069 25.5851C50.0047 29.9953 66.3448 42.6231 67.4261 58.4999C68.5075 74.3766 57.4392 77.1691 51.1311 77.4999Z" fill="#085137"/>
<path fill-rule="evenodd" clip-rule="evenodd" d="M32.1181 24.7908C24.6132 28.9928 11.4725 38.8499 7.92612 51.9997C3.83151 67.1821 14.1378 76.4997 23.0274 76.4997H55.1311C55.9103 76.4588 56.7621 76.3804 57.6547 76.2444C55.3563 77.0783 53.0284 77.4004 51.1311 77.4999H19.0275C10.1379 77.4999 -0.168431 68.1824 3.92618 52.9999C7.53185 39.6304 21.0551 29.6646 28.4896 25.5851C29.3435 25.3138 30.6198 25.0058 32.1181 24.7908Z" fill="#2CA77B"/>
<path fill-rule="evenodd" clip-rule="evenodd" d="M13.8752 76.4989C15.5705 77.1581 17.325 77.4999 19.0275 77.4999H51.1311C57.4392 77.1691 68.5075 74.3766 67.4261 58.4999C66.3448 42.6231 50.0047 29.9953 42.0069 25.5851C40.4122 24.9345 38.6457 24.6308 36.9073 24.5449C36.9406 24.5581 36.9738 24.5715 37.0069 24.585C45.0047 28.9952 61.3447 41.6231 62.4261 57.4998C63.5075 73.3766 52.4392 76.169 46.1311 76.4998H14.0274C13.9768 76.4998 13.926 76.4995 13.8752 76.4989Z" fill="#157351"/>
<path fill-rule="evenodd" clip-rule="evenodd" d="M27.6223 31.7051C28.1649 32.3311 28.0972 33.2785 27.4712 33.821C24.448 36.4411 17.5096 43.8477 14.1304 52.2473C13.8212 53.0159 12.9475 53.3883 12.179 53.0791C11.4104 52.7699 11.038 51.8962 11.3472 51.1276C14.968 42.1273 22.2796 34.3505 25.5064 31.554C26.1324 31.0114 27.0798 31.0791 27.6223 31.7051Z" fill="#30B082"/>
<path d="M58.8916 68.2598C58.8916 68.8408 58.4206 69.3117 57.8397 69.3117C57.2587 69.3117 56.7877 68.8408 56.7877 68.2598C56.7877 67.6788 57.2587 67.2079 57.8397 67.2079C58.4206 67.2079 58.8916 67.6788 58.8916 68.2598Z" fill="#166D4E"/>
<path d="M58.2012 73.125C58.2012 73.706 57.7303 74.177 57.1493 74.177C56.5683 74.177 56.0974 73.706 56.0974 73.125C56.0974 72.5441 56.5683 72.0731 57.1493 72.0731C57.7303 72.0731 58.2012 72.5441 58.2012 73.125Z" fill="#166D4E"/>
<path d="M50.2624 74.6043C50.2624 75.1853 49.7914 75.6562 49.2104 75.6562C48.6295 75.6562 48.1585 75.1853 48.1585 74.6043C48.1585 74.0233 48.6295 73.5524 49.2104 73.5524C49.7914 73.5524 50.2624 74.0233 50.2624 74.6043Z" fill="#166D4E"/>
<path d="M50.2624 70.8486C50.2624 71.307 49.8908 71.6786 49.4323 71.6786C48.9739 71.6786 48.6023 71.307 48.6023 70.8486C48.6023 70.3901 48.9739 70.0185 49.4323 70.0185C49.8908 70.0185 50.2624 70.3901 50.2624 70.8486Z" fill="#166D4E"/>
<path d="M45.8903 73.7743C45.8903 74.2327 45.5187 74.6043 45.0603 74.6043C44.6018 74.6043 44.2302 74.2327 44.2302 73.7743C44.2302 73.3158 44.6018 72.9442 45.0603 72.9442C45.5187 72.9442 45.8903 73.3158 45.8903 73.7743Z" fill="#166D4E"/>
<path d="M49.6049 67.5037C49.6049 67.9621 49.2333 68.3338 48.7749 68.3338C48.3164 68.3338 47.9448 67.9621 47.9448 67.5037C47.9448 67.0453 48.3164 66.6737 48.7749 66.6737C49.2333 66.6737 49.6049 67.0453 49.6049 67.5037Z" fill="#166D4E"/>
<path d="M53.8456 62.2111C53.8456 62.6696 53.474 63.0412 53.0155 63.0412C52.5571 63.0412 52.1855 62.6696 52.1855 62.2111C52.1855 61.7527 52.5571 61.3811 53.0155 61.3811C53.474 61.3811 53.8456 61.7527 53.8456 62.2111Z" fill="#166D4E"/>
<path d="M59.2532 60.3292C59.2532 60.7876 58.8815 61.1592 58.4231 61.1592C57.9647 61.1592 57.5931 60.7876 57.5931 60.3292C57.5931 59.8708 57.9647 59.4991 58.4231 59.4991C58.8815 59.4991 59.2532 59.8708 59.2532 60.3292Z" fill="#166D4E"/>
<path d="M63.4609 54.0175C63.4609 54.476 63.0893 54.8476 62.6309 54.8476C62.1725 54.8476 61.8008 54.476 61.8008 54.0175C61.8008 53.5591 62.1725 53.1875 62.6309 53.1875C63.0893 53.1875 63.4609 53.5591 63.4609 54.0175Z" fill="#166D4E"/>
<path d="M66.0004 58.6691C66.0004 59.1275 65.6288 59.4991 65.1704 59.4991C64.712 59.4991 64.3403 59.1275 64.3403 58.6691C64.3403 58.2107 64.712 57.8391 65.1704 57.8391C65.6288 57.8391 66.0004 58.2107 66.0004 58.6691Z" fill="#166D4E"/>
<path d="M62.7131 66.6737C62.7131 67.1321 62.3414 67.5037 61.883 67.5037C61.4246 67.5037 61.053 67.1321 61.053 66.6737C61.053 66.2153 61.4246 65.8436 61.883 65.8436C62.3414 65.8436 62.7131 66.2153 62.7131 66.6737Z" fill="#166D4E"/>
<path d="M60.8311 70.1007C60.8311 70.5364 60.4779 70.8896 60.0421 70.8896C59.6064 70.8896 59.2532 70.5364 59.2532 70.1007C59.2532 69.665 59.6064 69.3117 60.0421 69.3117C60.4779 69.3117 60.8311 69.665 60.8311 70.1007Z" fill="#166D4E"/>
<path d="M63.461 58.2664C63.461 58.7021 63.1077 59.0554 62.672 59.0554C62.2363 59.0554 61.8831 58.7021 61.8831 58.2664C61.8831 57.8307 62.2363 57.4774 62.672 57.4774C63.1077 57.4774 63.461 57.8307 63.461 58.2664Z" fill="#166D4E"/>
<path d="M43.6714 71.2841C43.6714 71.7199 43.3181 72.0731 42.8824 72.0731C42.4467 72.0731 42.0934 71.7199 42.0934 71.2841C42.0934 70.8484 42.4467 70.4952 42.8824 70.4952C43.3181 70.4952 43.6714 70.8484 43.6714 71.2841Z" fill="#166D4E"/>
<path d="M40.2854 74.6043C40.2854 75.04 39.9322 75.3933 39.4965 75.3933C39.0607 75.3933 38.7075 75.04 38.7075 74.6043C38.7075 74.1686 39.0607 73.8154 39.4965 73.8154C39.9322 73.8154 40.2854 74.1686 40.2854 74.6043Z" fill="#166D4E"/>
<path d="M53.2374 74.3413C53.2374 74.777 52.8842 75.1303 52.4484 75.1303C52.0127 75.1303 51.6595 74.777 51.6595 74.3413C51.6595 73.9056 52.0127 73.5524 52.4484 73.5524C52.8842 73.5524 53.2374 73.9056 53.2374 74.3413Z" fill="#166D4E"/>
<path d="M65.5648 64.7095C65.5648 65.2905 65.0938 65.7614 64.5129 65.7614C63.9319 65.7614 63.4609 65.2905 63.4609 64.7095C63.4609 64.1285 63.9319 63.6576 64.5129 63.6576C65.0938 63.6576 65.5648 64.1285 65.5648 64.7095Z" fill="#166D4E"/>
<path d="M58.6779 63.8712C58.6779 64.7155 57.9935 65.3998 57.1493 65.3998C56.3051 65.3998 55.6207 64.7155 55.6207 63.8712C55.6207 63.027 56.3051 62.3427 57.1493 62.3427C57.9935 62.3427 58.6779 63.027 58.6779 63.8712Z" fill="#166D4E"/>
<path d="M62.935 61.5537C62.935 62.1347 62.464 62.6056 61.8831 62.6056C61.3021 62.6056 60.8311 62.1347 60.8311 61.5537C60.8311 60.9727 61.3021 60.5018 61.8831 60.5018C62.464 60.5018 62.935 60.9727 62.935 61.5537Z" fill="#166D4E"/>
<path d="M53.7634 66.4518C53.7634 67.0327 53.2924 67.5037 52.7114 67.5037C52.1305 67.5037 51.6595 67.0327 51.6595 66.4518C51.6595 65.8708 52.1305 65.3998 52.7114 65.3998C53.2924 65.3998 53.7634 65.8708 53.7634 66.4518Z" fill="#166D4E"/>
<path d="M55.1605 70.6267C55.1605 71.3529 54.5718 71.9416 53.8456 71.9416C53.1194 71.9416 52.5306 71.3529 52.5306 70.6267C52.5306 69.9004 53.1194 69.3117 53.8456 69.3117C54.5718 69.3117 55.1605 69.9004 55.1605 70.6267Z" fill="#166D4E"/>
</g>
<path fill-rule="evenodd" clip-rule="evenodd" d="M50 52C50 60.2843 43.2843 67 35 67C26.7157 67 20 60.2843 20 52C20 43.7157 26.7157 37 35 37C43.2843 37 50 43.7157 50 52ZM35 65C42.1797 65 48 59.1797 48 52C48 44.8203 42.1797 39 35 39C27.8203 39 22 44.8203 22 52C22 59.1797 27.8203 65 35 65Z" fill="#0B6242"/>
<path fill-rule="evenodd" clip-rule="evenodd" d="M35 41C28.9249 41 24 45.9249 24 52C24 52.5523 23.5523 53 23 53C22.4477 53 22 52.5523 22 52C22 44.8203 27.8203 39 35 39C35.5523 39 36 39.4477 36 40C36 40.5523 35.5523 41 35 41Z" fill="#2CA77B"/>
<path fill-rule="evenodd" clip-rule="evenodd" d="M36.0832 45.5C33.1661 45.5 30.5 48.2333 30.5 52C30.5 55.7667 33.1661 58.5 36.0832 58.5C37.1826 58.5 38.2173 58.1295 39.0993 57.4672C39.7617 56.9698 40.702 57.1035 41.1995 57.7659C41.6969 58.4284 41.5632 59.3687 40.9007 59.8661C39.5389 60.8888 37.8803 61.5 36.0832 61.5C31.1765 61.5 27.5 57.0699 27.5 52C27.5 46.9301 31.1765 42.5 36.0832 42.5C37.8803 42.5 39.5389 43.1112 40.9007 44.1339C41.5632 44.6313 41.6969 45.5716 41.1995 46.2341C40.702 46.8965 39.7617 47.0302 39.0993 46.5328C38.2173 45.8705 37.1826 45.5 36.0832 45.5Z" fill="#0B6242"/>
<path fill-rule="evenodd" clip-rule="evenodd" d="M25 54C25 53.4477 25.4477 53 26 53H34C34.5523 53 35 53.4477 35 54C35 54.5523 34.5523 55 34 55H26C25.4477 55 25 54.5523 25 54Z" fill="#0B6242"/>
<path fill-rule="evenodd" clip-rule="evenodd" d="M25 50C25 49.4477 25.4477 49 26 49H34C34.5523 49 35 49.4477 35 50C35 50.5523 34.5523 51 34 51H26C25.4477 51 25 50.5523 25 50Z" fill="#0B6242"/>
<defs>
<clipPath id="clip0_101_16589">
<rect width="71" height="81" fill="white" transform="translate(0.5 0.5)"/>
</clipPath>
</defs>
</svg>
