<svg width="59" height="81" viewBox="0 0 59 81" fill="none" xmlns="http://www.w3.org/2000/svg">
<path d="M29.376 48.308C29.376 50.108 28.926 51.8 28.026 53.384C27.162 54.968 25.866 56.3 24.138 57.38C22.446 58.46 20.43 59.108 18.09 59.324V63.698H14.58V59.324C11.196 59 8.46 57.938 6.372 56.138C4.284 54.338 3.24 51.962 3.24 49.01H9.828C9.936 50.414 10.386 51.584 11.178 52.52C11.97 53.42 13.104 53.996 14.58 54.248V42.368C12.168 41.756 10.206 41.144 8.694 40.532C7.182 39.884 5.886 38.876 4.806 37.508C3.762 36.14 3.24 34.268 3.24 31.892C3.24 28.904 4.284 26.438 6.372 24.494C8.46 22.514 11.196 21.362 14.58 21.038V16.664H18.09V21.038C21.258 21.326 23.796 22.334 25.704 24.062C27.648 25.754 28.746 28.094 28.998 31.082H22.41C22.302 29.966 21.87 28.976 21.114 28.112C20.358 27.212 19.35 26.6 18.09 26.276V37.94C20.502 38.516 22.464 39.128 23.976 39.776C25.488 40.388 26.766 41.378 27.81 42.746C28.854 44.078 29.376 45.932 29.376 48.308ZM9.504 31.568C9.504 33.044 9.936 34.196 10.8 35.024C11.7 35.852 12.96 36.518 14.58 37.022V26.114C13.032 26.294 11.79 26.852 10.854 27.788C9.954 28.724 9.504 29.984 9.504 31.568ZM18.09 54.248C19.674 53.996 20.916 53.366 21.816 52.358C22.716 51.314 23.166 50.072 23.166 48.632C23.166 47.192 22.716 46.076 21.816 45.284C20.952 44.456 19.71 43.79 18.09 43.286V54.248Z" fill="#58C39C"/>
<path d="M46.5 34V13" stroke="#58C39C" stroke-width="3.71053" stroke-linecap="round" stroke-linejoin="round"/>
<path d="M36 23.5L46.5 13L57 23.5" stroke="#58C39C" stroke-width="3.71053" stroke-linecap="round" stroke-linejoin="round"/>
</svg>
