<svg width="96" height="96" viewBox="0 0 96 96" fill="none" xmlns="http://www.w3.org/2000/svg">
<path d="M10 46C10 42.6863 12.6863 40 16 40H84C87.3137 40 90 42.6863 90 46V78C90 81.3137 87.3137 84 84 84H16C12.6863 84 10 81.3137 10 78V46Z" fill="#021024" fill-opacity="0.1"/>
<path d="M10 44C10 41.7909 11.7909 40 14 40H82C84.2091 40 86 41.7909 86 44V76C86 78.2091 84.2091 80 82 80H14C11.7909 80 10 78.2091 10 76V44Z" fill="#78D3A9"/>
<path fill-rule="evenodd" clip-rule="evenodd" d="M14 38H82C85.3137 38 88 40.6863 88 44V76C88 79.3137 85.3137 82 82 82H14C10.6863 82 8 79.3137 8 76V44C8 40.6863 10.6863 38 14 38ZM14 40C11.7909 40 10 41.7909 10 44V76C10 78.2091 11.7909 80 14 80H82C84.2091 80 86 78.2091 86 76V44C86 41.7909 84.2091 40 82 40H14Z" fill="#2B6F95"/>
<path fill-rule="evenodd" clip-rule="evenodd" d="M10 44C10 41.7909 11.7909 40 14 40H36C36.5523 40 37 40.4477 37 41C37 41.5523 36.5523 42 36 42H14C12.8954 42 12 42.8954 12 44V55C12 55.5523 11.5523 56 11 56C10.4477 56 10 55.5523 10 55V44Z" fill="#9FFAD0"/>
<path d="M22 42H14C12.8954 42 12 42.8954 12 44V51.5404C12 52.809 13.1664 53.7509 14.3596 53.3202C18.0568 51.9855 22.8026 49.0479 23.8078 43.9884C24.023 42.905 23.1046 42 22 42Z" fill="#1BB093"/>
<path d="M74 78L82 78C83.1046 78 84 77.1046 84 76L84 68.4596C84 67.191 82.8336 66.2491 81.6404 66.6798C77.9432 68.0145 73.1974 70.9521 72.1922 76.0116C71.977 77.095 72.8954 78 74 78Z" fill="#1BB093"/>
<path d="M12 68L12 76C12 77.1046 12.8954 78 14 78L21.5404 78C22.809 78 23.7509 76.8336 23.3202 75.6403C21.9855 71.9432 19.0479 67.1974 13.9884 66.1922C12.905 65.977 12 66.8954 12 68Z" fill="#1BB093"/>
<path d="M84 52L84 44C84 42.8954 83.1046 42 82 42L74.4596 42C73.191 42 72.2491 43.1664 72.6798 44.3596C74.0145 48.0568 76.9521 52.8026 82.0116 53.8078C83.095 54.023 84 53.1046 84 52Z" fill="#1BB093"/>
<path d="M68 70C68 70.5523 67.5523 71 67 71C66.4477 71 66 70.5523 66 70C66 69.4477 66.4477 69 67 69C67.5523 69 68 69.4477 68 70Z" fill="#1BB093"/>
<path d="M72 69C72 69.5523 71.5523 70 71 70C70.4477 70 70 69.5523 70 69C70 68.4477 70.4477 68 71 68C71.5523 68 72 68.4477 72 69Z" fill="#1BB093"/>
<path d="M72 73C72 73.5523 71.5523 74 71 74C70.4477 74 70 73.5523 70 73C70 72.4477 70.4477 72 71 72C71.5523 72 72 72.4477 72 73Z" fill="#1BB093"/>
<path d="M67 74C67 74.5523 66.5523 75 66 75C65.4477 75 65 74.5523 65 74C65 73.4477 65.4477 73 66 73C66.5523 73 67 73.4477 67 74Z" fill="#1BB093"/>
<path d="M62 74C62 74.5523 61.5523 75 61 75C60.4477 75 60 74.5523 60 74C60 73.4477 60.4477 73 61 73C61.5523 73 62 73.4477 62 74Z" fill="#1BB093"/>
<path d="M57 77C57 77.5523 56.5523 78 56 78C55.4477 78 55 77.5523 55 77C55 76.4477 55.4477 76 56 76C56.5523 76 57 76.4477 57 77Z" fill="#1BB093"/>
<path d="M84 64C84 64.5523 83.5523 65 83 65C82.4477 65 82 64.5523 82 64C82 63.4477 82.4477 63 83 63C83.5523 63 84 63.4477 84 64Z" fill="#1BB093"/>
<path d="M75 65C75 65.5523 74.5523 66 74 66C73.4477 66 73 65.5523 73 65C73 64.4477 73.4477 64 74 64C74.5523 64 75 64.4477 75 65Z" fill="#1BB093"/>
<path d="M71 77C71 77.5523 70.5523 78 70 78C69.4477 78 69 77.5523 69 77C69 76.4477 69.4477 76 70 76C70.5523 76 71 76.4477 71 77Z" fill="#1BB093"/>
<path d="M65 77C65 77.5523 64.5523 78 64 78C63.4477 78 63 77.5523 63 77C63 76.4477 63.4477 76 64 76C64.5523 76 65 76.4477 65 77Z" fill="#1BB093"/>
<path d="M76 70C76 70.5523 75.5523 71 75 71C74.4477 71 74 70.5523 74 70C74 69.4477 74.4477 69 75 69C75.5523 69 76 69.4477 76 70Z" fill="#1BB093"/>
<path d="M80 72C80 72.5523 79.5523 73 79 73C78.4477 73 78 72.5523 78 72C78 71.4477 78.4477 71 79 71C79.5523 71 80 71.4477 80 72Z" fill="#1BB093"/>
<path d="M79 67C79 67.5523 78.5523 68 78 68C77.4477 68 77 67.5523 77 67C77 66.4477 77.4477 66 78 66C78.5523 66 79 66.4477 79 67Z" fill="#1BB093"/>
<path d="M75 75C75 75.5523 74.5523 76 74 76C73.4477 76 73 75.5523 73 75C73 74.4477 73.4477 74 74 74C74.5523 74 75 74.4477 75 75Z" fill="#1BB093"/>
<path d="M80 77C80 77.5523 79.5523 78 79 78C78.4477 78 78 77.5523 78 77C78 76.4477 78.4477 76 79 76C79.5523 76 80 76.4477 80 77Z" fill="#1BB093"/>
<path fill-rule="evenodd" clip-rule="evenodd" d="M63 60C63 68.2843 56.2843 75 48 75C39.7157 75 33 68.2843 33 60C33 51.7157 39.7157 45 48 45C56.2843 45 63 51.7157 63 60ZM48 73C55.1797 73 61 67.1797 61 60C61 52.8203 55.1797 47 48 47C40.8203 47 35 52.8203 35 60C35 67.1797 40.8203 73 48 73Z" fill="#2B6F95"/>
<path fill-rule="evenodd" clip-rule="evenodd" d="M48 49C41.9249 49 37 53.9249 37 60C37 60.5523 36.5523 61 36 61C35.4477 61 35 60.5523 35 60C35 52.8203 40.8203 47 48 47C48.5523 47 49 47.4477 49 48C49 48.5523 48.5523 49 48 49Z" fill="#9FFAD0"/>
<path fill-rule="evenodd" clip-rule="evenodd" d="M49.0832 53.5C46.1661 53.5 43.5 56.2333 43.5 60C43.5 63.7667 46.1661 66.5 49.0832 66.5C50.1826 66.5 51.2173 66.1295 52.0993 65.4672C52.7617 64.9698 53.702 65.1035 54.1995 65.7659C54.6969 66.4284 54.5632 67.3687 53.9007 67.8661C52.5389 68.8888 50.8803 69.5 49.0832 69.5C44.1765 69.5 40.5 65.0699 40.5 60C40.5 54.9301 44.1765 50.5 49.0832 50.5C50.8803 50.5 52.5389 51.1112 53.9007 52.1339C54.5632 52.6313 54.6969 53.5716 54.1995 54.2341C53.702 54.8965 52.7617 55.0302 52.0993 54.5328C51.2173 53.8705 50.1826 53.5 49.0832 53.5Z" fill="#2B6F95"/>
<path fill-rule="evenodd" clip-rule="evenodd" d="M38 62C38 61.4477 38.4477 61 39 61H47C47.5523 61 48 61.4477 48 62C48 62.5523 47.5523 63 47 63H39C38.4477 63 38 62.5523 38 62Z" fill="#2B6F95"/>
<path fill-rule="evenodd" clip-rule="evenodd" d="M38 58C38 57.4477 38.4477 57 39 57H47C47.5523 57 48 57.4477 48 58C48 58.5523 47.5523 59 47 59H39C38.4477 59 38 58.5523 38 58Z" fill="#2B6F95"/>
<path d="M68.3785 13.8787C69.5501 12.7071 71.4496 12.7071 72.6212 13.8787L85.2927 26.5503C87.1826 28.4401 85.8441 31.6716 83.1714 31.6716H78.9999L78.9999 49.1716C78.9999 51.933 76.7613 54.1716 73.9999 54.1716H66.9999C64.2384 54.1716 61.9999 51.933 61.9999 49.1716L61.9999 31.6716H57.8283C55.1556 31.6716 53.8171 28.4401 55.707 26.5503L68.3785 13.8787Z" fill="#021024" fill-opacity="0.1"/>
<path d="M70.9142 13.4142L83.5857 26.0858C84.8457 27.3457 83.9533 29.5 82.1715 29.5L77 29.5L77 48C77 50.2091 75.2091 52 73 52L66 52C63.7908 52 62 50.2091 62 48L62 29.5L56.8284 29.5C55.0466 29.5 54.1542 27.3457 55.4142 26.0858L68.0857 13.4142C68.8668 12.6332 70.1331 12.6332 70.9142 13.4142Z" fill="#55CF6C"/>
<path fill-rule="evenodd" clip-rule="evenodd" d="M68.7929 14.1213C69.1834 13.7308 69.8166 13.7308 70.2071 14.1213L82.8787 26.7929C83.5087 27.4229 83.0625 28.5 82.1716 28.5L77 28.5C76.4477 28.5 76 28.9477 76 29.5L76 48C76 49.6569 74.6569 51 73 51L66 51C64.3432 51 63 49.6569 63 48L63 29.5C63 28.9477 62.5523 28.5 62 28.5L56.8285 28.5C55.9375 28.5 55.4914 27.4229 56.1213 26.7929L68.7929 14.1213ZM71.6213 12.7071C70.4498 11.5355 68.5503 11.5355 67.3787 12.7071L54.7071 25.3787C52.8172 27.2686 54.1557 30.5 56.8285 30.5L61 30.5L61 48C61 50.7614 63.2386 53 66 53L73 53C75.7615 53 78 50.7614 78 48L78 30.5L82.1716 30.5C84.8443 30.5 86.1828 27.2686 84.2929 25.3787L71.6213 12.7071Z" fill="#1BB093"/>
<path fill-rule="evenodd" clip-rule="evenodd" d="M65 27C65.5523 27 66 27.4477 66 28V49C66 49.5523 65.5523 50 65 50C64.4477 50 64 49.5523 64 49V28C64 27.4477 64.4477 27 65 27Z" fill="#FFE792"/>
<path fill-rule="evenodd" clip-rule="evenodd" d="M74 27C73.4477 27 73 27.4477 73 28V49C73 49.5523 73.4477 50 74 50C74.5523 50 75 49.5523 75 49V28C75 27.4477 74.5523 27 74 27Z" fill="#55CF6C"/>
<path fill-rule="evenodd" clip-rule="evenodd" d="M58.2929 27.2071C58.6834 27.5976 59.3166 27.5976 59.7071 27.2071L68.7071 18.2071C69.0976 17.8166 69.0976 17.1834 68.7071 16.7929C68.3166 16.4024 67.6834 16.4024 67.2929 16.7929L58.2929 25.7929C57.9024 26.1834 57.9024 26.8166 58.2929 27.2071Z" fill="#FFE792"/>
<path fill-rule="evenodd" clip-rule="evenodd" d="M81.226 27.1877C80.8461 27.5887 80.2132 27.6058 79.8123 27.226L70.3123 18.226C69.9113 17.8461 69.8942 17.2132 70.274 16.8123C70.6539 16.4113 71.2868 16.3942 71.6877 16.774L81.1877 25.774C81.5887 26.1539 81.6058 26.7868 81.226 27.1877Z" fill="#55CF6C"/>
</svg>
