<svg width="82" height="73" viewBox="0 0 82 73" fill="none" xmlns="http://www.w3.org/2000/svg">
<path d="M2 35C2 31.6863 4.68629 29 8 29H76C79.3137 29 82 31.6863 82 35V67C82 70.3137 79.3137 73 76 73H8C4.68629 73 2 70.3137 2 67V35Z" fill="#021024" fill-opacity="0.1"/>
<path d="M2 33C2 30.7909 3.79086 29 6 29H74C76.2091 29 78 30.7909 78 33V65C78 67.2091 76.2091 69 74 69H6C3.79086 69 2 67.2091 2 65V33Z" fill="#78D3A9"/>
<path fill-rule="evenodd" clip-rule="evenodd" d="M6 27H74C77.3137 27 80 29.6863 80 33V65C80 68.3137 77.3137 71 74 71H6C2.68629 71 0 68.3137 0 65V33C0 29.6863 2.68629 27 6 27ZM6 29C3.79086 29 2 30.7909 2 33V65C2 67.2091 3.79086 69 6 69H74C76.2091 69 78 67.2091 78 65V33C78 30.7909 76.2091 29 74 29H6Z" fill="#2B6F95"/>
<path fill-rule="evenodd" clip-rule="evenodd" d="M2 33C2 30.7909 3.79086 29 6 29H28C28.5523 29 29 29.4477 29 30C29 30.5523 28.5523 31 28 31H6C4.89543 31 4 31.8954 4 33V44C4 44.5523 3.55228 45 3 45C2.44772 45 2 44.5523 2 44V33Z" fill="#9FFAD0"/>
<path d="M14 31H6C4.89543 31 4 31.8954 4 33V40.5404C4 41.809 5.16639 42.7509 6.35965 42.3202C10.0568 40.9855 14.8026 38.0479 15.8078 32.9884C16.023 31.905 15.1046 31 14 31Z" fill="#1BB093"/>
<path d="M66 67L74 67C75.1046 67 76 66.1046 76 65L76 57.4596C76 56.191 74.8336 55.2491 73.6404 55.6798C69.9432 57.0145 65.1974 59.9521 64.1922 65.0116C63.977 66.095 64.8954 67 66 67Z" fill="#1BB093"/>
<path d="M4 57L4 65C4 66.1046 4.89543 67 6 67L13.5404 67C14.809 67 15.7509 65.8336 15.3202 64.6403C13.9855 60.9432 11.0479 56.1974 5.98838 55.1922C4.90498 54.977 4 55.8954 4 57Z" fill="#1BB093"/>
<path d="M76 41L76 33C76 31.8954 75.1046 31 74 31L66.4596 31C65.191 31 64.2491 32.1664 64.6798 33.3596C66.0145 37.0568 68.9521 41.8026 74.0116 42.8078C75.095 43.023 76 42.1046 76 41Z" fill="#1BB093"/>
<path d="M60 59C60 59.5523 59.5523 60 59 60C58.4477 60 58 59.5523 58 59C58 58.4477 58.4477 58 59 58C59.5523 58 60 58.4477 60 59Z" fill="#1BB093"/>
<path d="M64 58C64 58.5523 63.5523 59 63 59C62.4477 59 62 58.5523 62 58C62 57.4477 62.4477 57 63 57C63.5523 57 64 57.4477 64 58Z" fill="#1BB093"/>
<path d="M64 62C64 62.5523 63.5523 63 63 63C62.4477 63 62 62.5523 62 62C62 61.4477 62.4477 61 63 61C63.5523 61 64 61.4477 64 62Z" fill="#1BB093"/>
<path d="M59 63C59 63.5523 58.5523 64 58 64C57.4477 64 57 63.5523 57 63C57 62.4477 57.4477 62 58 62C58.5523 62 59 62.4477 59 63Z" fill="#1BB093"/>
<path d="M54 63C54 63.5523 53.5523 64 53 64C52.4477 64 52 63.5523 52 63C52 62.4477 52.4477 62 53 62C53.5523 62 54 62.4477 54 63Z" fill="#1BB093"/>
<path d="M49 66C49 66.5523 48.5523 67 48 67C47.4477 67 47 66.5523 47 66C47 65.4477 47.4477 65 48 65C48.5523 65 49 65.4477 49 66Z" fill="#1BB093"/>
<path d="M76 53C76 53.5523 75.5523 54 75 54C74.4477 54 74 53.5523 74 53C74 52.4477 74.4477 52 75 52C75.5523 52 76 52.4477 76 53Z" fill="#1BB093"/>
<path d="M67 54C67 54.5523 66.5523 55 66 55C65.4477 55 65 54.5523 65 54C65 53.4477 65.4477 53 66 53C66.5523 53 67 53.4477 67 54Z" fill="#1BB093"/>
<path d="M63 66C63 66.5523 62.5523 67 62 67C61.4477 67 61 66.5523 61 66C61 65.4477 61.4477 65 62 65C62.5523 65 63 65.4477 63 66Z" fill="#1BB093"/>
<path d="M57 66C57 66.5523 56.5523 67 56 67C55.4477 67 55 66.5523 55 66C55 65.4477 55.4477 65 56 65C56.5523 65 57 65.4477 57 66Z" fill="#1BB093"/>
<path d="M68 59C68 59.5523 67.5523 60 67 60C66.4477 60 66 59.5523 66 59C66 58.4477 66.4477 58 67 58C67.5523 58 68 58.4477 68 59Z" fill="#1BB093"/>
<path d="M72 61C72 61.5523 71.5523 62 71 62C70.4477 62 70 61.5523 70 61C70 60.4477 70.4477 60 71 60C71.5523 60 72 60.4477 72 61Z" fill="#1BB093"/>
<path d="M71 56C71 56.5523 70.5523 57 70 57C69.4477 57 69 56.5523 69 56C69 55.4477 69.4477 55 70 55C70.5523 55 71 55.4477 71 56Z" fill="#1BB093"/>
<path d="M67 64C67 64.5523 66.5523 65 66 65C65.4477 65 65 64.5523 65 64C65 63.4477 65.4477 63 66 63C66.5523 63 67 63.4477 67 64Z" fill="#1BB093"/>
<path d="M72 66C72 66.5523 71.5523 67 71 67C70.4477 67 70 66.5523 70 66C70 65.4477 70.4477 65 71 65C71.5523 65 72 65.4477 72 66Z" fill="#1BB093"/>
<path fill-rule="evenodd" clip-rule="evenodd" d="M55 49C55 57.2843 48.2843 64 40 64C31.7157 64 25 57.2843 25 49C25 40.7157 31.7157 34 40 34C48.2843 34 55 40.7157 55 49ZM40 62C47.1797 62 53 56.1797 53 49C53 41.8203 47.1797 36 40 36C32.8203 36 27 41.8203 27 49C27 56.1797 32.8203 62 40 62Z" fill="#2B6F95"/>
<path fill-rule="evenodd" clip-rule="evenodd" d="M40 38C33.9249 38 29 42.9249 29 49C29 49.5523 28.5523 50 28 50C27.4477 50 27 49.5523 27 49C27 41.8203 32.8203 36 40 36C40.5523 36 41 36.4477 41 37C41 37.5523 40.5523 38 40 38Z" fill="#9FFAD0"/>
<path fill-rule="evenodd" clip-rule="evenodd" d="M41.0832 42.5C38.1661 42.5 35.5 45.2333 35.5 49C35.5 52.7667 38.1661 55.5 41.0832 55.5C42.1826 55.5 43.2173 55.1295 44.0993 54.4672C44.7617 53.9698 45.702 54.1035 46.1995 54.7659C46.6969 55.4284 46.5632 56.3687 45.9007 56.8661C44.5389 57.8888 42.8803 58.5 41.0832 58.5C36.1765 58.5 32.5 54.0699 32.5 49C32.5 43.9301 36.1765 39.5 41.0832 39.5C42.8803 39.5 44.5389 40.1112 45.9007 41.1339C46.5632 41.6313 46.6969 42.5716 46.1995 43.2341C45.702 43.8965 44.7617 44.0302 44.0993 43.5328C43.2173 42.8705 42.1826 42.5 41.0832 42.5Z" fill="#2B6F95"/>
<path fill-rule="evenodd" clip-rule="evenodd" d="M30 51C30 50.4477 30.4477 50 31 50H39C39.5523 50 40 50.4477 40 51C40 51.5523 39.5523 52 39 52H31C30.4477 52 30 51.5523 30 51Z" fill="#2B6F95"/>
<path fill-rule="evenodd" clip-rule="evenodd" d="M30 47C30 46.4477 30.4477 46 31 46H39C39.5523 46 40 46.4477 40 47C40 47.5523 39.5523 48 39 48H31C30.4477 48 30 47.5523 30 47Z" fill="#2B6F95"/>
<path d="M60.3785 41.2929C61.5501 42.4645 63.4496 42.4645 64.6212 41.2929L77.2927 28.6213C79.1826 26.7314 77.8441 23.5 75.1714 23.5H70.9999L70.9999 6C70.9999 3.23858 68.7613 1 65.9999 1H58.9999C56.2384 0.999998 53.9999 3.23857 53.9999 6L53.9999 23.5H49.8283C47.1556 23.5 45.8171 26.7314 47.707 28.6213L60.3785 41.2929Z" fill="#021024" fill-opacity="0.1"/>
<path d="M62.9142 39.5858L75.5857 26.9142C76.8457 25.6543 75.9533 23.5 74.1715 23.5L69 23.5L69 5C69 2.79086 67.2091 0.999999 65 0.999999L58 0.999998C55.7908 0.999998 54 2.79086 54 5L54 23.5L48.8284 23.5C47.0466 23.5 46.1542 25.6543 47.4142 26.9142L60.0857 39.5858C60.8668 40.3668 62.1331 40.3668 62.9142 39.5858Z" fill="#EF5252"/>
<path fill-rule="evenodd" clip-rule="evenodd" d="M60.7929 38.8787C61.1834 39.2692 61.8166 39.2692 62.2071 38.8787L74.8787 26.2071C75.5087 25.5771 75.0625 24.5 74.1716 24.5L69 24.5C68.4477 24.5 68 24.0523 68 23.5L68 5C68 3.34315 66.6569 2 65 2L58 2C56.3432 2 55 3.34314 55 5L55 23.5C55 24.0523 54.5523 24.5 54 24.5L48.8285 24.5C47.9375 24.5 47.4914 25.5771 48.1213 26.2071L60.7929 38.8787ZM63.6213 40.2929C62.4498 41.4645 60.5503 41.4645 59.3787 40.2929L46.7071 27.6213C44.8172 25.7314 46.1557 22.5 48.8285 22.5L53 22.5L53 5C53 2.23857 55.2386 -1.91797e-06 58 -1.67656e-06L65 -1.0646e-06C67.7615 -8.23187e-07 70 2.23858 70 5L70 22.5L74.1716 22.5C76.8443 22.5 78.1828 25.7314 76.2929 27.6213L63.6213 40.2929Z" fill="#8E2222"/>
<path fill-rule="evenodd" clip-rule="evenodd" d="M57 3C57.5523 3 58 3.44772 58 4V25C58 25.5523 57.5523 26 57 26C56.4477 26 56 25.5523 56 25V4C56 3.44772 56.4477 3 57 3Z" fill="#FF7D7D"/>
<path fill-rule="evenodd" clip-rule="evenodd" d="M50.2929 25.7929C50.6834 25.4024 51.3166 25.4024 51.7071 25.7929L60.7071 34.7929C61.0976 35.1834 61.0976 35.8166 60.7071 36.2071C60.3166 36.5976 59.6834 36.5976 59.2929 36.2071L50.2929 27.2071C49.9024 26.8166 49.9024 26.1834 50.2929 25.7929Z" fill="#FF7D7D"/>
<path fill-rule="evenodd" clip-rule="evenodd" d="M57 3C57.5523 3 58 3.44772 58 4V9C58 9.55228 57.5523 10 57 10C56.4477 10 56 9.55228 56 9V4C56 3.44772 56.4477 3 57 3Z" fill="#FFB8B8"/>
<path fill-rule="evenodd" clip-rule="evenodd" d="M66 3C65.4477 3 65 3.44772 65 4V25C65 25.5523 65.4477 26 66 26C66.5523 26 67 25.5523 67 25V4C67 3.44772 66.5523 3 66 3Z" fill="#D84141"/>
<path fill-rule="evenodd" clip-rule="evenodd" d="M73.226 25.8123C72.8461 25.4113 72.2132 25.3942 71.8123 25.774L62.3123 34.774C61.9113 35.1539 61.8942 35.7868 62.274 36.1877C62.6539 36.5887 63.2868 36.6058 63.6877 36.226L73.1877 27.226C73.5887 26.8461 73.6058 26.2132 73.226 25.8123Z" fill="#D84141"/>
</svg>
