<svg width="474" height="371" viewBox="0 0 474 371" fill="none" xmlns="http://www.w3.org/2000/svg">
<path d="M11.85 83.7742C11.85 63.9454 27.7663 47.871 47.4 47.871H426.6C446.234 47.871 462.15 63.9454 462.15 83.7742V335.097C462.15 354.926 446.234 371 426.6 371H59.25C33.0717 371 11.85 349.567 11.85 323.129V83.7742Z" fill="#021024" fill-opacity="0.1"/>
<path fill-rule="evenodd" clip-rule="evenodd" d="M59.25 11.9677C33.0717 11.9677 11.85 33.4003 11.85 59.8387V83.7742V95.7419V299.194C11.85 325.632 33.0717 347.065 59.25 347.065H414.75C427.839 347.065 438.45 336.348 438.45 323.129V83.7742C438.45 70.555 427.839 59.8387 414.75 59.8387V35.9032C414.75 22.684 404.139 11.9677 391.05 11.9677H59.25Z" fill="#6156E0"/>
<path fill-rule="evenodd" clip-rule="evenodd" d="M0 59.8387C0 26.7907 26.5271 0 59.25 0H391.05C410.684 0 426.6 16.0744 426.6 35.9032V49.9139C440.408 54.8427 450.3 68.1417 450.3 83.7742V323.129C450.3 342.958 434.384 359.032 414.75 359.032H59.25C26.5271 359.032 0 332.242 0 299.194V59.8387ZM414.75 59.8387C427.839 59.8387 438.45 70.555 438.45 83.7742V323.129C438.45 336.348 427.839 347.065 414.75 347.065H59.25C33.0717 347.065 11.85 325.632 11.85 299.194V59.8387C11.85 33.4003 33.0717 11.9677 59.25 11.9677H391.05C404.139 11.9677 414.75 22.684 414.75 35.9032V59.8387Z" fill="#22179B"/>
<path fill-rule="evenodd" clip-rule="evenodd" d="M23.7 71.8065C26.9723 71.8065 29.625 74.4855 29.625 77.7903V305.177C29.625 308.482 26.9723 311.161 23.7 311.161C20.4277 311.161 17.775 308.482 17.775 305.177V77.7903C17.775 74.4855 20.4277 71.8065 23.7 71.8065Z" fill="#B982FF"/>
<path fill-rule="evenodd" clip-rule="evenodd" d="M23.7 71.8065C26.9723 71.8065 29.625 74.4855 29.625 77.7903V167.548C29.625 170.853 26.9723 173.532 23.7 173.532C20.4277 173.532 17.775 170.853 17.775 167.548V77.7903C17.775 74.4855 20.4277 71.8065 23.7 71.8065Z" fill="#829DFF"/>
<path fill-rule="evenodd" clip-rule="evenodd" d="M53.325 107.71C53.325 104.405 55.9777 101.726 59.25 101.726H165.9C169.172 101.726 171.825 104.405 171.825 107.71C171.825 111.014 169.172 113.694 165.9 113.694H59.25C55.9777 113.694 53.325 111.014 53.325 107.71Z" fill="#52D5FF"/>
<path fill-rule="evenodd" clip-rule="evenodd" d="M53.325 155.581C53.325 152.276 55.9777 149.597 59.25 149.597H118.5C121.772 149.597 124.425 152.276 124.425 155.581C124.425 158.885 121.772 161.565 118.5 161.565H59.25C55.9777 161.565 53.325 158.885 53.325 155.581Z" fill="#52D5FF"/>
<path fill-rule="evenodd" clip-rule="evenodd" d="M53.325 299.194C53.325 295.889 55.9777 293.21 59.25 293.21H118.5C121.772 293.21 124.425 295.889 124.425 299.194C124.425 302.498 121.772 305.177 118.5 305.177H59.25C55.9777 305.177 53.325 302.498 53.325 299.194Z" fill="#52D5FF"/>
<path fill-rule="evenodd" clip-rule="evenodd" d="M183.675 203.452C183.675 200.147 186.328 197.468 189.6 197.468H225.15C226.32 197.468 227.463 197.817 228.437 198.473L263.987 222.408C266.709 224.241 267.445 227.957 265.63 230.706C263.815 233.456 260.136 234.199 257.413 232.366L223.356 209.435H189.6C186.328 209.435 183.675 206.756 183.675 203.452Z" fill="#52D5FF"/>
<path fill-rule="evenodd" clip-rule="evenodd" d="M53.325 251.323C53.325 248.018 55.9777 245.339 59.25 245.339H165.9C167.135 245.339 168.339 245.728 169.344 246.453L210.819 276.373C213.482 278.294 214.098 282.031 212.196 284.72C210.294 287.409 206.594 288.032 203.931 286.111L164.001 257.306H59.25C55.9777 257.306 53.325 254.627 53.325 251.323Z" fill="#52D5FF"/>
<path fill-rule="evenodd" clip-rule="evenodd" d="M210.013 150.602C210.987 149.946 212.13 149.597 213.3 149.597H278.475C281.747 149.597 284.4 152.276 284.4 155.581C284.4 158.885 281.747 161.565 278.475 161.565H215.094L145.487 208.43C144.513 209.086 143.37 209.435 142.2 209.435H59.25C55.9777 209.435 53.325 206.756 53.325 203.452C53.325 200.147 55.9777 197.468 59.25 197.468H140.406L210.013 150.602Z" fill="#52D5FF"/>
<path fill-rule="evenodd" clip-rule="evenodd" d="M290.325 173.532C300.142 173.532 308.1 165.495 308.1 155.581C308.1 145.666 300.142 137.629 290.325 137.629C280.508 137.629 272.55 145.666 272.55 155.581C272.55 165.495 280.508 173.532 290.325 173.532ZM290.325 161.565C293.597 161.565 296.25 158.885 296.25 155.581C296.25 152.276 293.597 149.597 290.325 149.597C287.053 149.597 284.4 152.276 284.4 155.581C284.4 158.885 287.053 161.565 290.325 161.565Z" fill="#52D5FF"/>
<path fill-rule="evenodd" clip-rule="evenodd" d="M272.55 251.323C282.367 251.323 290.325 243.285 290.325 233.371C290.325 223.457 282.367 215.419 272.55 215.419C262.733 215.419 254.775 223.457 254.775 233.371C254.775 243.285 262.733 251.323 272.55 251.323ZM272.55 239.355C275.822 239.355 278.475 236.676 278.475 233.371C278.475 230.066 275.822 227.387 272.55 227.387C269.278 227.387 266.625 230.066 266.625 233.371C266.625 236.676 269.278 239.355 272.55 239.355Z" fill="#52D5FF"/>
<path fill-rule="evenodd" clip-rule="evenodd" d="M219.225 305.177C229.042 305.177 237 297.14 237 287.226C237 277.311 229.042 269.274 219.225 269.274C209.408 269.274 201.45 277.311 201.45 287.226C201.45 297.14 209.408 305.177 219.225 305.177ZM219.225 293.21C222.497 293.21 225.15 290.531 225.15 287.226C225.15 283.921 222.497 281.242 219.225 281.242C215.953 281.242 213.3 283.921 213.3 287.226C213.3 290.531 215.953 293.21 219.225 293.21Z" fill="#52D5FF"/>
<path fill-rule="evenodd" clip-rule="evenodd" d="M130.35 173.532C140.167 173.532 148.125 165.495 148.125 155.581C148.125 145.666 140.167 137.629 130.35 137.629C120.533 137.629 112.575 145.666 112.575 155.581C112.575 165.495 120.533 173.532 130.35 173.532ZM130.35 161.565C133.622 161.565 136.275 158.885 136.275 155.581C136.275 152.276 133.622 149.597 130.35 149.597C127.078 149.597 124.425 152.276 124.425 155.581C124.425 158.885 127.078 161.565 130.35 161.565Z" fill="#52D5FF"/>
<path fill-rule="evenodd" clip-rule="evenodd" d="M130.35 317.145C140.167 317.145 148.125 309.108 148.125 299.194C148.125 289.279 140.167 281.242 130.35 281.242C120.533 281.242 112.575 289.279 112.575 299.194C112.575 309.108 120.533 317.145 130.35 317.145ZM130.35 305.177C133.622 305.177 136.275 302.498 136.275 299.194C136.275 295.889 133.622 293.21 130.35 293.21C127.078 293.21 124.425 295.889 124.425 299.194C124.425 302.498 127.078 305.177 130.35 305.177Z" fill="#52D5FF"/>
<path fill-rule="evenodd" clip-rule="evenodd" d="M177.75 125.661C187.567 125.661 195.525 117.624 195.525 107.71C195.525 97.7953 187.567 89.7581 177.75 89.7581C167.933 89.7581 159.975 97.7953 159.975 107.71C159.975 117.624 167.933 125.661 177.75 125.661ZM177.75 113.694C181.022 113.694 183.675 111.014 183.675 107.71C183.675 104.405 181.022 101.726 177.75 101.726C174.478 101.726 171.825 104.405 171.825 107.71C171.825 111.014 174.478 113.694 177.75 113.694Z" fill="#52D5FF"/>
<path d="M391.05 11.9677H53.3251C43.5082 11.9677 35.55 20.005 35.55 29.9194C35.5501 39.8338 43.5082 47.871 53.3251 47.871H414.75V35.9032C414.75 22.684 404.139 11.9677 391.05 11.9677Z" fill="#4B41BE"/>
<path d="M414.75 59.8387V35.9032H47.4001C40.8555 35.9032 35.55 41.2614 35.55 47.871C35.5501 54.4806 40.8555 59.8387 47.4001 59.8387H414.75Z" fill="#382EA7"/>
<path fill-rule="evenodd" clip-rule="evenodd" d="M53.325 11.9677C43.5082 11.9677 35.55 20.005 35.55 29.9194C35.55 39.8338 43.5082 47.871 53.325 47.871H420.675C423.947 47.871 426.6 50.55 426.6 53.8548C426.6 57.1596 423.947 59.8387 420.675 59.8387H53.325C36.9636 59.8387 23.7 46.4434 23.7 29.9194C23.7 13.3954 36.9636 0 53.325 0H154.05C157.322 0 159.975 2.67907 159.975 5.98387C159.975 9.28867 157.322 11.9677 154.05 11.9677H53.325Z" fill="#22179B"/>
<path d="M331.8 287.226C331.8 290.531 329.147 293.21 325.875 293.21C322.603 293.21 319.95 290.531 319.95 287.226C319.95 283.921 322.603 281.242 325.875 281.242C329.147 281.242 331.8 283.921 331.8 287.226Z" fill="#4438CE"/>
<path d="M355.5 281.242C355.5 284.547 352.847 287.226 349.575 287.226C346.303 287.226 343.65 284.547 343.65 281.242C343.65 277.937 346.303 275.258 349.575 275.258C352.847 275.258 355.5 277.937 355.5 281.242Z" fill="#4438CE"/>
<path d="M361.425 302.185C361.425 307.143 357.446 311.161 352.538 311.161C347.629 311.161 343.65 307.143 343.65 302.185C343.65 297.228 347.629 293.21 352.538 293.21C357.446 293.21 361.425 297.228 361.425 302.185Z" fill="#4438CE"/>
<path d="M420.675 314.153C420.675 319.11 416.696 323.129 411.788 323.129C406.879 323.129 402.9 319.11 402.9 314.153C402.9 309.196 406.879 305.177 411.788 305.177C416.696 305.177 420.675 309.196 420.675 314.153Z" fill="#4438CE"/>
<path d="M337.725 314.153C337.725 319.11 333.746 323.129 328.837 323.129C323.929 323.129 319.95 319.11 319.95 314.153C319.95 309.196 323.929 305.177 328.837 305.177C333.746 305.177 337.725 309.196 337.725 314.153Z" fill="#4438CE"/>
<path d="M302.175 305.177C302.175 308.482 299.522 311.161 296.25 311.161C292.978 311.161 290.325 308.482 290.325 305.177C290.325 301.873 292.978 299.194 296.25 299.194C299.522 299.194 302.175 301.873 302.175 305.177Z" fill="#4438CE"/>
<path d="M278.475 323.129C278.475 326.434 275.822 329.113 272.55 329.113C269.278 329.113 266.625 326.434 266.625 323.129C266.625 319.824 269.278 317.145 272.55 317.145C275.822 317.145 278.475 319.824 278.475 323.129Z" fill="#4438CE"/>
<path d="M420.675 251.323C420.675 254.627 418.022 257.306 414.75 257.306C411.478 257.306 408.825 254.627 408.825 251.323C408.825 248.018 411.478 245.339 414.75 245.339C418.022 245.339 420.675 248.018 420.675 251.323Z" fill="#4438CE"/>
<path d="M373.275 257.306C373.275 260.611 370.622 263.29 367.35 263.29C364.078 263.29 361.425 260.611 361.425 257.306C361.425 254.002 364.078 251.323 367.35 251.323C370.622 251.323 373.275 254.002 373.275 257.306Z" fill="#4438CE"/>
<path d="M349.575 329.113C349.575 332.418 346.922 335.097 343.65 335.097C340.378 335.097 337.725 332.418 337.725 329.113C337.725 325.808 340.378 323.129 343.65 323.129C346.922 323.129 349.575 325.808 349.575 329.113Z" fill="#4438CE"/>
<path d="M308.1 329.113C308.1 332.418 305.447 335.097 302.175 335.097C298.903 335.097 296.25 332.418 296.25 329.113C296.25 325.808 298.903 323.129 302.175 323.129C305.447 323.129 308.1 325.808 308.1 329.113Z" fill="#4438CE"/>
<path d="M379.2 287.226C379.2 290.531 376.547 293.21 373.275 293.21C370.003 293.21 367.35 290.531 367.35 287.226C367.35 283.921 370.003 281.242 373.275 281.242C376.547 281.242 379.2 283.921 379.2 287.226Z" fill="#4438CE"/>
<path d="M396.975 299.194C396.975 302.498 394.322 305.177 391.05 305.177C387.778 305.177 385.125 302.498 385.125 299.194C385.125 295.889 387.778 293.21 391.05 293.21C394.322 293.21 396.975 295.889 396.975 299.194Z" fill="#4438CE"/>
<path d="M426.6 281.242C426.6 284.547 423.947 287.226 420.675 287.226C417.403 287.226 414.75 284.547 414.75 281.242C414.75 277.937 417.403 275.258 420.675 275.258C423.947 275.258 426.6 277.937 426.6 281.242Z" fill="#4438CE"/>
<path d="M402.9 272.266C402.9 277.223 398.921 281.242 394.012 281.242C389.104 281.242 385.125 277.223 385.125 272.266C385.125 267.309 389.104 263.29 394.012 263.29C398.921 263.29 402.9 267.309 402.9 272.266Z" fill="#4438CE"/>
<path d="M373.275 317.145C373.275 320.45 370.622 323.129 367.35 323.129C364.078 323.129 361.425 320.45 361.425 317.145C361.425 313.84 364.078 311.161 367.35 311.161C370.622 311.161 373.275 313.84 373.275 317.145Z" fill="#4438CE"/>
<path d="M391.05 329.113C391.05 332.418 388.397 335.097 385.125 335.097C381.853 335.097 379.2 332.418 379.2 329.113C379.2 325.808 381.853 323.129 385.125 323.129C388.397 323.129 391.05 325.808 391.05 329.113Z" fill="#4438CE"/>
<path d="M319.95 209.435C319.95 192.911 333.214 179.516 349.575 179.516H450.3C456.845 179.516 462.15 184.874 462.15 191.484V227.387C462.15 233.997 456.845 239.355 450.3 239.355H349.575C333.214 239.355 319.95 225.959 319.95 209.435Z" fill="#8176FF"/>
<path fill-rule="evenodd" clip-rule="evenodd" d="M349.575 167.548H450.3C463.389 167.548 474 178.265 474 191.484V227.387C474 240.606 463.389 251.323 450.3 251.323H349.575C326.669 251.323 308.1 232.569 308.1 209.435C308.1 186.302 326.669 167.548 349.575 167.548ZM349.575 179.516C333.214 179.516 319.95 192.911 319.95 209.435C319.95 225.959 333.214 239.355 349.575 239.355H450.3C456.845 239.355 462.15 233.997 462.15 227.387V191.484C462.15 184.874 456.845 179.516 450.3 179.516H349.575Z" fill="#22179B"/>
<path fill-rule="evenodd" clip-rule="evenodd" d="M319.95 209.435C319.95 192.911 333.214 179.516 349.575 179.516H444.375C447.647 179.516 450.3 182.195 450.3 185.5C450.3 188.805 447.647 191.484 444.375 191.484H349.575C339.758 191.484 331.8 199.521 331.8 209.435H319.95Z" fill="#D7A5FF"/>
<path fill-rule="evenodd" clip-rule="evenodd" d="M319.95 209.435C319.95 192.911 333.214 179.516 349.575 179.516H355.5C358.772 179.516 361.425 182.195 361.425 185.5C361.425 188.805 358.772 191.484 355.5 191.484H349.575C339.758 191.484 331.8 199.521 331.8 209.435V215.419C331.8 218.724 329.147 221.403 325.875 221.403C322.603 221.403 319.95 218.724 319.95 215.419V209.435Z" fill="#C4E2FF"/>
<path d="M367.35 209.435C367.35 219.35 359.392 227.387 349.575 227.387C339.758 227.387 331.8 219.35 331.8 209.435C331.8 199.521 339.758 191.484 349.575 191.484C359.392 191.484 367.35 199.521 367.35 209.435Z" fill="#22179B"/>
<path fill-rule="evenodd" clip-rule="evenodd" d="M47.4 17.9516C47.4 14.6468 50.0527 11.9677 53.325 11.9677H379.2C382.472 11.9677 385.125 14.6468 385.125 17.9516C385.125 21.2564 382.472 23.9355 379.2 23.9355H53.325C50.0527 23.9355 47.4 21.2564 47.4 17.9516Z" fill="#6156E0"/>
<path fill-rule="evenodd" clip-rule="evenodd" d="M53.325 65.8226C53.325 62.5178 55.9777 59.8387 59.25 59.8387H402.9C406.172 59.8387 408.825 62.5178 408.825 65.8226C408.825 69.1274 406.172 71.8065 402.9 71.8065H59.25C55.9777 71.8065 53.325 69.1274 53.325 65.8226Z" fill="#D7A5FF"/>
<path fill-rule="evenodd" clip-rule="evenodd" d="M23.6141 42.7398C26.4201 41.0395 30.0596 41.9585 31.7432 44.7923C35.6408 51.3529 39.9704 54.9696 44.3509 57.0342C48.822 59.1414 53.7855 59.8387 59.25 59.8387H142.2C145.472 59.8387 148.125 62.5178 148.125 65.8226C148.125 69.1274 145.472 71.8065 142.2 71.8065H59.25C52.8646 71.8065 45.978 71.0078 39.3397 67.8791C32.6109 64.7078 26.5718 59.3488 21.5819 50.9497C19.8983 48.1158 20.8082 44.4402 23.6141 42.7398Z" fill="#C3E2FF"/>
</svg>
